<svg xmlns="http://www.w3.org/2000/svg" viewBox="0 0 512 512" width="512" height="512">
  <rect width="512" height="512" rx="102" fill="#090908"/>
  <path transform="matrix(0.20992 0 0 -0.20992 135.84 360.89)" fill="#F2EEE6" d="M833 1110Q825 1084 808.5 1023.5Q792 963 770.0 879.0Q748 795 723.0 697.5Q698 600 672.0 499.0Q646 398 622.5 304.5Q599 211 579.5 135.0Q560 59 547 12Q513 -133 440.5 -231.0Q368 -329 266.0 -379.0Q164 -429 39 -429Q-72 -429 -128.5 -377.0Q-185 -325 -185 -251Q-185 -188 -143.0 -143.5Q-101 -99 -28 -99Q7 -99 43.0 -114.5Q79 -130 114.5 -150.5Q150 -171 183.5 -186.5Q217 -202 247 -202Q283 -202 303.0 -183.0Q323 -164 323 -128Q323 -100 303.5 -70.5Q284 -41 256.5 -8.0Q229 25 204.0 63.0Q179 101 168.0 146.0Q157 191 171 245Q179 277 193.5 334.0Q208 391 227.0 464.0Q246 537 267.5 618.5Q289 700 310.5 780.5Q332 861 351.0 933.0Q370 1005 385.0 1059.5Q400 1114 408 1142Q423 1199 420.0 1218.5Q417 1238 391 1248L350 1263Q327 1274 316.0 1288.0Q305 1302 305 1323Q305 1357 328.5 1378.5Q352 1400 398 1400H929Q976 1400 992.0 1381.5Q1008 1363 1008 1335Q1008 1307 991.0 1287.5Q974 1268 951 1259L906 1245Q890 1239 880.0 1228.0Q870 1217 860.0 1190.5Q850 1164 833 1110Z"/>
  <circle cx="343" cy="338" r="54" fill="#E8955A"/>
</svg>
