<svg width="354" height="185" viewBox="0 0 354 185" fill="none" xmlns="http://www.w3.org/2000/svg">
<path d="M187.459 91.4611H197.107L261 8.00151V177H93V160.105H100.407C100.502 159.45 104.648 153.462 105.216 152.889C105.777 152.306 120.015 133.486 120.015 133.486H144.986L147.908 143.663C147.842 143.752 140.609 153.257 138.662 155.561C137.504 156.924 134.199 160.088 134.183 160.105H145.929C145.94 160.079 146.348 159.103 147.276 157.367C148.222 155.615 151.532 151.569 151.546 151.552C151.546 151.552 152.999 156.1 153.115 156.868C153.262 157.812 153.653 160.068 153.659 160.105H165.535C165.544 160.085 165.965 159.178 166.903 157.441C167.84 155.683 171.281 151.888 171.281 151.888C171.281 151.888 172.6 156.1 172.72 156.868C172.865 157.812 173.252 160.064 173.26 160.105H188.441C188.42 160.068 186.17 156.141 185.659 154.825C185.365 154.093 180.649 139.239 180.613 139.127L184.57 133.486H209.731C209.751 133.546 215.463 152.033 216.145 154.481C216.591 156.323 216.84 158.208 216.888 160.105H232.729C230.331 158.395 224.296 136.95 221.368 128.708L213.693 101.953C213.319 100.934 213.036 97.2507 213.036 97.2507H200.779C200.122 99.0089 199.001 100.625 198.239 102.046C197.296 103.805 181.724 124.344 178.3 128.708C177.8 129.354 177.508 129.715 177.505 129.701C177.505 129.66 177.397 129.276 177.244 128.708C176.68 126.732 175.523 122.762 175.523 122.762C175.577 122.691 188.792 105.797 190.145 104.072C194.176 98.9425 196.477 97.2507 196.477 97.2507H183.911C183.808 98.6216 183.373 99.9467 182.642 101.109C182.042 102.038 171.811 114.939 171.755 115.009C171.74 114.956 168.521 103.272 167.908 101.377C167.53 100.036 167.363 98.6431 167.416 97.2507H152.338C152.9 97.8953 154.622 102.174 154.646 102.231L162.08 125.253L157.73 130.848C157.54 130.551 149.683 104.617 149.344 103.525C148.968 102.3 148.57 97.2507 148.57 97.2507H135.659C135.659 97.2507 133.154 102.739 131.414 105.281C130.697 106.331 122.511 117.364 113.789 128.708C104.085 141.715 93.5235 154.906 93.2895 155.081C93.189 155.169 93.0915 155.261 93 155.36V8H251.563L187.459 91.4611ZM165.098 133.83C165.098 133.83 167.701 141.765 168.127 142.225L163.508 148.606L160.634 139.657L165.098 133.83ZM138.246 109.264C138.443 108.836 138.483 109.169 138.483 109.376C138.413 110.855 138.524 112.336 138.813 113.788C139.38 116.059 142.631 126.136 142.631 126.136H125.852C125.883 126.098 136.449 113.154 138.246 109.264ZM202.714 109.264C202.91 108.834 202.948 109.169 202.948 109.376C202.877 110.855 202.988 112.336 203.279 113.788C203.846 116.059 207.097 126.136 207.097 126.136H190.319C190.319 126.136 200.914 113.16 202.714 109.264Z" fill="#707070"/>
</svg>
