<svg width="354" height="185" viewBox="0 0 354 185" fill="none" xmlns="http://www.w3.org/2000/svg">
<path d="M183.972 91.8115H190.404L232.999 36.501V148.5H121V137.303H125.938C126.001 136.869 128.765 132.901 129.144 132.521C129.518 132.135 139.01 119.662 139.01 119.662H155.657L157.605 126.407C157.561 126.466 152.739 132.765 151.441 134.292C150.669 135.195 148.466 137.292 148.455 137.303H156.286C156.293 137.286 156.565 136.639 157.184 135.489C157.814 134.328 160.021 131.646 160.03 131.635C160.03 131.635 160.999 134.649 161.076 135.158C161.174 135.784 161.435 137.279 161.439 137.303H169.356C169.362 137.29 169.643 136.689 170.268 135.538C170.893 134.373 173.187 131.858 173.187 131.858C173.187 131.858 174.066 134.649 174.146 135.158C174.243 135.784 174.501 137.276 174.506 137.303H184.627C184.613 137.279 183.113 134.676 182.772 133.804C182.576 133.319 179.432 123.475 179.408 123.401L182.046 119.662H198.82C198.833 119.702 202.641 131.954 203.096 133.576C203.393 134.797 203.559 136.046 203.591 137.303H214.152C212.553 136.17 208.53 121.958 206.578 116.496L201.461 98.7646C201.212 98.0894 201.023 95.6484 201.023 95.6484H192.852C192.414 96.8136 191.667 97.8848 191.159 98.8262C190.53 99.9921 180.149 113.604 177.866 116.496C177.533 116.924 177.338 117.163 177.336 117.154C177.336 117.127 177.264 116.872 177.162 116.496C176.786 115.186 176.015 112.555 176.015 112.555C176.051 112.508 184.861 101.312 185.763 100.169C188.45 96.7696 189.984 95.6484 189.984 95.6484H181.607C181.538 96.5569 181.248 97.4351 180.761 98.2051C180.361 98.8208 173.54 107.371 173.503 107.417C173.493 107.382 171.347 99.639 170.938 98.3828C170.686 97.4946 170.575 96.5712 170.61 95.6484H160.558C160.933 96.0756 162.081 98.9114 162.097 98.9492L167.053 114.206L164.153 117.914C164.026 117.717 158.788 100.53 158.562 99.8066C158.312 98.9945 158.046 95.6484 158.046 95.6484H149.439C149.439 95.6484 147.769 99.2855 146.609 100.97C146.131 101.666 140.674 108.978 134.859 116.496C128.39 125.116 121.349 133.858 121.193 133.974C121.126 134.032 121.061 134.093 121 134.159V36.5H226.708L183.972 91.8115ZM169.065 119.89C169.065 119.89 170.8 125.149 171.084 125.454L168.005 129.683L166.089 123.752L169.065 119.89ZM151.164 103.61C151.295 103.326 151.322 103.547 151.322 103.684C151.275 104.664 151.349 105.646 151.542 106.608C151.92 108.113 154.087 114.791 154.087 114.791H142.901C142.922 114.766 149.966 106.188 151.164 103.61ZM194.142 103.61C194.273 103.325 194.298 103.547 194.298 103.684C194.251 104.664 194.325 105.646 194.519 106.608C194.897 108.113 197.064 114.791 197.064 114.791H185.879C185.879 114.791 192.942 106.192 194.142 103.61Z" fill="#707070"/>
</svg>
