<svg width="354" height="185" viewBox="0 0 354 185" fill="none" xmlns="http://www.w3.org/2000/svg">
<path d="M161.323 116.744C162.476 118.444 163.735 120.038 165.203 121.472H125.62C125.62 119.878 124.099 116.638 122.422 114.089C120.744 111.539 111.674 97.5693 111.674 97.5693V116.744C111.674 118.338 111.674 119.878 112.461 121.472H79.4837C80.2701 119.878 80.2701 118.338 80.2701 116.744V71.1704C80.2701 69.5769 80.2701 68.0366 79.4837 66.4431H112.461C111.674 68.0366 111.674 69.5769 111.674 71.1704V91.0891C111.674 91.0891 122.212 77.1726 124.624 73.9325C126.459 71.4891 128.713 68.0366 128.713 66.4431H163.105C160.746 68.0366 158.125 70.9048 155.975 73.5607C154.088 75.8978 143.393 89.1238 143.393 89.1238C143.393 89.1238 159.226 113.611 161.323 116.744ZM171.704 71.1704V116.744C171.704 118.338 171.704 119.878 170.917 121.472H234.564V106.174C232.991 106.971 231.471 106.971 229.898 106.971H203.108V99.7471H228.85V88.1677H203.108V80.8907H229.898C231.471 80.8907 232.991 80.8908 234.564 81.6344V66.3899H170.917C171.704 68.0366 171.704 69.5769 171.704 71.1704ZM322.747 116.744C323.271 118.497 324.163 120.091 325.316 121.472H290.819C290.976 119.878 290.399 118.338 289.77 116.744C289.77 116.744 289.246 115.47 288.512 113.611L288.197 112.814H268.327L268.013 113.664C268.013 113.664 267.436 115.204 266.912 116.798C266.388 118.391 265.811 119.931 266.021 121.525H238.811C239.912 120.144 240.751 118.55 241.275 116.798L257.58 71.2235C258.156 69.63 258.733 68.0897 258.523 66.4962H304.502C304.083 68.0897 304.922 69.63 305.498 71.2235C306.862 74.6761 321.594 113.664 322.747 116.744ZM283.846 101.181L279.023 88.4333C278.603 87.2647 278.236 86.0431 277.974 84.8214C277.764 86.0431 277.45 87.2647 277.03 88.4333C276.873 88.9645 274.828 94.5417 272.469 101.181H283.846ZM63.8603 66.4431H27.9999C28.7863 68.0366 28.7863 69.5769 28.7863 71.1704V116.744C28.7863 118.338 28.7863 119.878 27.9999 121.472H63.8603C63.0739 119.878 63.0739 118.338 63.0739 116.744V71.1704C63.0739 69.5769 63.0739 68.0366 63.8603 66.4431ZM311.737 70.7986C311.58 66.9211 314.568 63.681 318.396 63.5748C318.553 63.5748 318.71 63.5748 318.867 63.5748C322.747 63.5216 325.945 66.6024 325.998 70.533C325.998 70.6393 325.998 70.6924 325.998 70.7986C326.102 74.7824 323.009 78.1287 319.025 78.2349C315.093 78.3412 311.79 75.2073 311.685 71.1704C311.737 71.0642 311.737 70.9048 311.737 70.7986ZM313.153 70.7986C313.153 73.9856 315.722 76.5883 318.867 76.5883C322.013 76.5883 324.582 73.9856 324.582 70.7986C324.582 67.6116 322.013 65.0089 318.867 65.0089C315.827 64.9027 313.258 67.2929 313.153 70.3737C313.153 70.4799 313.153 70.6393 313.153 70.7986ZM317.452 75.1011H316.194V66.3899H319.392C320.912 66.4431 322.066 67.6647 322.066 69.2051C322.066 70.2674 321.489 71.2235 320.545 71.7547L322.38 75.1011H320.965L319.287 72.0203H317.452V75.1011ZM317.452 70.7986H319.182C320.021 70.8517 320.755 70.2143 320.755 69.3645C320.755 68.5146 320.178 67.771 319.339 67.771C319.287 67.771 319.234 67.771 319.182 67.771H317.452V70.7986Z" fill="#707070"/>
</svg>
