<svg width="354" height="185" viewBox="0 0 354 185" fill="none" xmlns="http://www.w3.org/2000/svg">
<path d="M164.8 111.379C165.697 112.701 166.676 113.942 167.819 115.058H137.014C137.014 113.818 135.831 111.296 134.526 109.312C133.22 107.328 126.162 96.4561 126.162 96.4561V111.379C126.162 112.619 126.162 113.818 126.774 115.058H101.11C101.722 113.818 101.722 112.619 101.722 111.379V75.9117C101.722 74.6716 101.722 73.4728 101.11 72.2327H126.774C126.162 73.4728 126.162 74.6716 126.162 75.9117V91.413C126.162 91.413 134.362 80.5827 136.239 78.0612C137.667 76.1597 139.422 73.4728 139.422 72.2327H166.187C164.351 73.4728 162.311 75.705 160.638 77.7718C159.169 79.5907 150.846 89.8835 150.846 89.8835C150.846 89.8835 163.168 108.94 164.8 111.379ZM172.878 75.9117V111.379C172.878 112.619 172.878 113.818 172.266 115.058H221.798V103.153C220.574 103.773 219.391 103.773 218.167 103.773H197.318V98.1509H217.351V89.1395H197.318V83.4763H218.167C219.391 83.4763 220.574 83.4763 221.798 84.055V72.1914H172.266C172.878 73.4728 172.878 74.6716 172.878 75.9117ZM290.425 111.379C290.833 112.743 291.526 113.983 292.424 115.058H265.577C265.699 113.818 265.251 112.619 264.761 111.379C264.761 111.379 264.353 110.387 263.782 108.94L263.537 108.32H248.074L247.829 108.981C247.829 108.981 247.38 110.18 246.972 111.42C246.564 112.66 246.115 113.859 246.278 115.099H225.103C225.96 114.024 226.613 112.784 227.021 111.42L239.71 75.953C240.158 74.7129 240.607 73.5142 240.444 72.274H276.226C275.9 73.5142 276.552 74.7129 277.001 75.953C278.062 78.6399 289.527 108.981 290.425 111.379ZM260.151 99.267L256.397 89.3462C256.071 88.4367 255.785 87.486 255.581 86.5352C255.418 87.486 255.173 88.4367 254.847 89.3462C254.724 89.7595 253.133 94.0999 251.297 99.267H260.151ZM88.9514 72.2327H61.0438C61.6558 73.4728 61.6558 74.6716 61.6558 75.9117V111.379C61.6558 112.619 61.6558 113.818 61.0438 115.058H88.9514C88.3394 113.818 88.3394 112.619 88.3394 111.379V75.9117C88.3394 74.6716 88.3394 73.4728 88.9514 72.2327ZM281.857 75.6223C281.734 72.6047 284.06 70.0832 287.038 70.0005C287.161 70.0005 287.283 70.0005 287.405 70.0005C290.425 69.9592 292.913 72.3567 292.954 75.4156C292.954 75.4983 292.954 75.5397 292.954 75.6223C293.036 78.7226 290.629 81.3268 287.528 81.4095C284.468 81.4922 281.897 79.0533 281.816 75.9117C281.857 75.829 281.857 75.705 281.857 75.6223ZM282.958 75.6223C282.958 78.1025 284.957 80.128 287.405 80.128C289.853 80.128 291.853 78.1025 291.853 75.6223C291.853 73.1421 289.853 71.1166 287.405 71.1166C285.039 71.0339 283.04 72.8941 282.958 75.2916C282.958 75.3743 282.958 75.4983 282.958 75.6223ZM286.304 78.9706H285.325V72.1914H287.813C288.997 72.2327 289.894 73.1835 289.894 74.3822C289.894 75.209 289.445 75.953 288.711 76.3664L290.139 78.9706H289.037L287.732 76.5731H286.304V78.9706ZM286.304 75.6223H287.65C288.303 75.6637 288.874 75.1676 288.874 74.5062C288.874 73.8449 288.425 73.2661 287.773 73.2661C287.732 73.2661 287.691 73.2661 287.65 73.2661H286.304V75.6223Z" fill="#707070"/>
</svg>
