<svg width="354" height="185" viewBox="0 0 354 185" fill="none" xmlns="http://www.w3.org/2000/svg">
<g style="mix-blend-mode:luminosity">
<path d="M99.8037 58.7734C103.741 58.4355 107.425 59.2263 110.888 61.0137C114.601 62.9311 117.33 65.9091 119.396 69.5898C120.433 71.438 121.495 73.2757 122.562 75.1084L125.753 80.5986C127.668 83.9269 129.569 87.265 131.471 90.6025C132.83 92.9872 134.23 95.2985 135.469 97.7061C136.713 100.125 137.279 102.747 137.363 105.519C137.505 110.181 136.197 114.369 133.44 118.081C130.416 122.151 126.494 124.858 121.544 125.871L121.062 125.964C119.827 126.186 118.546 126.273 117.27 126.282C111.996 126.318 106.723 126.296 101.443 126.296C96.0293 126.296 90.6229 126.315 85.2129 126.291C80.7772 126.271 76.8366 124.831 73.3555 122.072C69.2088 118.786 66.6575 114.513 65.8184 109.335C65.0784 104.763 65.8276 100.379 68.2012 96.3223C70.1532 92.9873 72.04 89.5859 73.9629 86.251C75.845 82.9869 77.7463 79.7711 79.6367 76.5039C81.2771 73.6692 82.8252 70.8314 84.5078 68.0498C86.4509 64.839 89.1829 62.4265 92.542 60.7676C94.6717 59.7163 96.9308 59.0792 99.3232 58.8203L99.8037 58.7734ZM101.604 69.791C86.2337 69.7431 74.2948 81.8881 74.1924 96.9268C74.0884 112.196 86.3567 124.503 101.481 124.347H101.483C101.486 124.347 101.489 124.348 101.492 124.348L101.491 124.347C116.592 124.468 128.677 112.211 128.771 97.3105C128.867 81.9486 116.628 69.8391 101.604 69.791Z" fill="#707070" stroke="#707070" stroke-width="1.08899"/>
<path d="M184.238 79.085C187.757 79.085 191.261 79.0545 194.77 79.0938C197.008 79.1184 199.169 79.4037 201.202 80.2588L201.606 80.4375C204.608 81.8251 206.935 84.7721 206.85 88.2207C206.817 89.5159 206.816 90.8164 206.821 92.1133L206.837 95.9863C206.836 96.4776 206.698 96.7819 206.51 96.9668C206.319 97.1542 205.999 97.2929 205.487 97.2988C204.833 97.3058 204.417 97.1643 204.172 96.9639C203.972 96.8005 203.829 96.5516 203.794 96.1611L203.785 95.9854C203.769 93.7032 203.698 91.4617 203.799 89.2197C203.882 87.3738 203.4 85.9349 202.468 84.8594C201.545 83.7951 200.229 83.1423 198.743 82.7598C197.703 82.492 196.612 82.3283 195.532 82.2861L195.07 82.2754C188.895 82.2298 182.717 82.2533 176.547 82.2549C176.304 82.2549 176.072 82.2635 175.87 82.3018C175.663 82.3411 175.437 82.421 175.253 82.6045C175.069 82.7879 174.988 83.0143 174.948 83.2227C174.909 83.4257 174.901 83.6599 174.901 83.9072L174.875 90.1016C174.869 92.1701 174.876 94.2408 174.922 96.3086C174.955 97.8162 175.311 99.0485 176.128 100.033C176.937 101.009 178.144 101.676 179.747 102.17H179.748C180.989 102.552 182.328 102.69 183.596 102.699C190.276 102.746 196.958 102.735 203.638 102.712C204.582 102.709 205.298 103.003 205.943 103.665C207.434 105.196 209.017 106.74 210.501 108.252C210.821 108.578 210.96 108.87 210.996 109.12C211.027 109.335 210.988 109.569 210.848 109.832L210.781 109.946C210.493 110.405 210.181 110.694 209.882 110.841C209.631 110.965 209.371 110.998 209.099 110.933L208.98 110.898C208.773 110.828 208.541 110.646 208.292 110.401L206.591 108.724C206.029 108.162 205.474 107.596 204.932 107.02C204.175 106.216 203.312 105.868 202.212 105.873C196.041 105.904 189.868 105.912 183.698 105.879C181.151 105.865 178.712 105.466 176.516 104.225C173.51 102.526 171.853 100.031 171.835 96.5576C171.807 91.2317 171.826 85.9055 171.827 80.5752C171.827 79.8718 171.959 79.5504 172.122 79.3857C172.284 79.222 172.603 79.0874 173.307 79.0859C176.95 79.0797 180.593 79.0846 184.237 79.083L184.238 79.085Z" fill="#707070" stroke="#707070" stroke-width="1.08899"/>
<path d="M278.399 79.0693C281.754 78.9928 284.523 80.1664 286.861 82.5381C287.23 82.9118 287.365 83.2708 287.355 83.6006C287.345 83.9393 287.179 84.3455 286.754 84.7979C286.416 85.1563 286.069 85.3079 285.758 85.3184C285.488 85.3273 285.18 85.2327 284.861 84.9697L284.724 84.8467C283.523 83.6825 282.164 82.5835 280.281 82.3379H280.28C279.956 82.2958 279.61 82.2607 279.258 82.2607C275.011 82.2607 270.736 82.1958 266.472 82.3076C264.916 82.3488 263.353 82.7185 261.904 83.1523C261.101 83.3927 260.523 83.8637 260.159 84.498C259.804 85.1181 259.674 85.8572 259.683 86.6172C259.691 87.3551 259.814 88.0796 260.159 88.6953C260.513 89.3271 261.079 89.803 261.885 90.0664C262.931 90.4084 264.101 90.779 265.278 90.8477L265.514 90.8574C269.874 90.9564 274.272 90.8883 278.61 90.9336C280.952 90.9583 283.184 91.2763 285.184 92.4209C287.278 93.6201 288.465 95.3042 288.451 97.7363C288.443 99.1604 288.548 100.352 287.988 101.484C286.847 103.792 284.853 104.932 282.366 105.444C281.245 105.675 280.086 105.802 278.925 105.857L278.427 105.877C276.595 105.935 274.768 105.911 272.921 105.9L273.054 105.769H271.741C268.889 105.769 266.108 105.896 263.32 105.732H263.319C260.89 105.589 258.952 104.285 257.262 102.482L256.927 102.115C256.688 101.846 256.621 101.543 256.698 101.21C256.78 100.857 257.034 100.444 257.496 100.046C257.796 99.7881 258.096 99.6863 258.365 99.6904C258.6 99.6941 258.854 99.7786 259.105 99.9805L259.213 100.074C260.343 101.135 261.613 102.334 263.456 102.604H263.457C263.731 102.644 264.112 102.718 264.479 102.718C269.373 102.722 274.273 102.744 279.173 102.703C280.788 102.69 282.482 102.451 283.963 101.463L283.962 101.462C284.176 101.319 284.416 101.13 284.618 100.908C284.812 100.696 285.017 100.406 285.081 100.063C285.253 99.1613 285.389 98.1261 285.223 97.1475C285.056 96.1647 284.507 95.5613 283.836 95.1768C283.361 94.9048 282.813 94.7369 282.314 94.6035L281.837 94.4795C280.815 94.2134 279.739 94.1162 278.71 94.1064C276.657 94.0868 274.605 94.0906 272.557 94.0938C270.508 94.0969 268.462 94.0995 266.418 94.0752H266.417C263.799 94.0442 261.334 93.6807 259.232 92.166H259.231C257.573 90.9698 256.639 89.4131 256.625 87.3623C256.615 85.9608 256.55 84.7509 257.094 83.6143C258.126 81.458 259.918 80.2488 262.208 79.71C263.581 79.3872 265.015 79.207 266.428 79.1748C268.415 79.1294 270.406 79.1256 272.402 79.1221C274.397 79.1185 276.398 79.115 278.399 79.0693Z" fill="#707070" stroke="#707070" stroke-width="1.08899"/>
<path d="M231.764 79.0879V79.5557L232.442 79.2158C234.933 79.2117 237.348 79.0965 239.772 79.248C242.853 79.4409 245.592 80.4753 247.692 82.79C249.013 84.2455 249.738 85.9646 249.776 87.9092C249.833 90.7781 249.798 93.6453 249.792 96.5293C249.788 98.3205 249.356 99.8245 248.56 101.089C247.761 102.356 246.579 103.412 245.03 104.274C242.891 105.465 240.534 105.852 238.068 105.885C235.178 105.922 232.288 105.937 229.398 105.917L226.51 105.885C223.56 105.838 220.783 105.333 218.426 103.616L218.199 103.446C215.981 101.738 214.758 99.541 214.771 96.7109C214.784 94.0211 214.801 91.3236 214.768 88.6279C214.744 86.6886 215.21 85.0952 216.077 83.7783C216.947 82.4574 218.244 81.3811 219.934 80.5156C222.106 79.4016 224.482 79.1434 226.971 79.0967H226.972C228.567 79.0657 230.156 79.0836 231.764 79.0879ZM238.443 82.2773C234.426 82.2428 230.4 82.2248 226.377 82.2861C225.13 82.3056 223.83 82.4682 222.617 82.8311C221.304 83.224 220.066 83.8303 219.175 84.8506C218.328 85.8196 217.837 87.1113 217.83 88.8145L217.836 89.1611C217.877 90.3997 217.873 91.6426 217.864 92.8945C217.855 94.1432 217.842 95.4038 217.862 96.6631C217.89 98.4312 218.632 99.9026 220.104 100.959C221.84 102.204 223.814 102.631 225.804 102.701C227.759 102.771 229.731 102.73 231.665 102.722V102.729H232.209C234.23 102.729 236.321 102.805 238.382 102.699C239.7 102.632 241.067 102.432 242.345 102.022C243.835 101.545 244.951 100.826 245.684 99.7822C246.414 98.7414 246.719 97.4427 246.718 95.8945C246.718 93.4803 246.751 91.0405 246.707 88.6113C246.688 87.5461 246.466 86.5599 245.979 85.6982C245.552 84.9414 244.935 84.3028 244.115 83.7979L243.751 83.5898C242.077 82.6979 240.292 82.2938 238.443 82.2773Z" fill="#707070" stroke="#707070" stroke-width="1.08899"/>
<path d="M162.408 79.0869C162.817 79.1025 163.038 79.2134 163.158 79.3389C163.279 79.4646 163.383 79.691 163.383 80.1084V104.719C163.383 105.304 163.271 105.545 163.155 105.66C163.038 105.777 162.79 105.89 162.194 105.895C161.599 105.899 161.183 105.89 160.881 105.846C160.581 105.802 160.473 105.735 160.423 105.686C160.374 105.637 160.305 105.53 160.259 105.231C160.213 104.931 160.201 104.518 160.201 103.925V80.5117C160.201 79.7091 160.311 79.4371 160.431 79.3184C160.536 79.2136 160.76 79.116 161.354 79.0928L161.632 79.0879C161.93 79.0879 162.155 79.0765 162.408 79.0869Z" fill="#707070" stroke="#707070" stroke-width="1.08899"/>
</g>
</svg>
