<svg width="354" height="185" viewBox="0 0 354 185" fill="none" xmlns="http://www.w3.org/2000/svg">
<g style="mix-blend-mode:luminosity">
<path d="M67.566 44.6888C73.1476 44.2098 78.37 45.3308 83.2792 47.8646C88.5428 50.5828 92.4115 54.8044 95.3403 60.0222C96.8103 62.6422 98.3158 65.2474 99.8284 67.8454L104.352 75.6284C107.067 80.3466 109.762 85.0788 112.458 89.81C114.384 93.1906 116.369 96.4671 118.125 99.8802C119.889 103.309 120.691 107.026 120.81 110.956C121.012 117.565 119.158 123.502 115.249 128.764C110.962 134.534 105.402 138.371 98.3853 139.807L97.702 139.939C95.9512 140.254 94.1353 140.377 92.3264 140.39C84.8499 140.441 77.3749 140.41 69.8899 140.41C62.2154 140.41 54.5512 140.436 46.8819 140.402C40.5938 140.374 35.0076 138.333 30.0727 134.422C24.1943 129.763 20.5776 123.706 19.3881 116.365C18.339 109.884 19.4011 103.669 22.766 97.9185C25.5331 93.1908 28.2079 88.3689 30.9338 83.6413C33.6019 79.0141 36.2972 74.4553 38.977 69.8237C41.3025 65.8052 43.4971 61.7823 45.8824 57.8391C48.6369 53.2874 52.5098 49.8674 57.2717 47.5158C60.2908 46.0254 63.4933 45.1223 66.8848 44.7553L67.566 44.6888ZM70.1181 60.3074C48.329 60.2395 31.4043 77.4564 31.2591 98.7754C31.1117 120.421 48.5034 137.868 69.9438 137.647H69.9466C69.9508 137.647 69.9551 137.648 69.9593 137.648L69.9579 137.647C91.3653 137.818 108.497 120.442 108.63 99.3194C108.766 77.5422 91.4163 60.3756 70.1181 60.3074Z" fill="#707070" stroke="#707070" stroke-width="1.08899"/>
<path d="M187.261 73.4827C192.25 73.4827 197.217 73.4395 202.191 73.4952C205.364 73.5301 208.427 73.9345 211.309 75.1467L211.882 75.4C216.138 77.3671 219.437 81.5448 219.316 86.4336C219.269 88.2697 219.268 90.1133 219.275 91.9518L219.298 97.4422C219.296 98.1386 219.101 98.57 218.834 98.8321C218.563 99.0978 218.11 99.2944 217.384 99.3028C216.457 99.3127 215.867 99.1121 215.52 98.828C215.236 98.5964 215.033 98.2436 214.984 97.69L214.971 97.4409C214.948 94.2056 214.848 91.0281 214.991 87.8498C215.109 85.233 214.425 83.1932 213.104 81.6686C211.796 80.1598 209.93 79.2344 207.823 78.6922C206.349 78.3125 204.803 78.0805 203.271 78.0206L202.617 78.0055C193.863 77.9408 185.105 77.9741 176.358 77.9764C176.014 77.9764 175.685 77.9886 175.398 78.0429C175.105 78.0986 174.785 78.2119 174.524 78.472C174.263 78.732 174.148 79.0529 174.091 79.3484C174.036 79.6361 174.025 79.9681 174.025 80.3187L173.988 89.1C173.979 92.0323 173.989 94.9677 174.055 97.8991C174.101 100.036 174.606 101.783 175.764 103.179C176.911 104.562 178.622 105.508 180.895 106.208H180.896C182.655 106.75 184.553 106.945 186.351 106.958C195.821 107.025 205.293 107.009 214.763 106.977C216.101 106.972 217.116 107.389 218.03 108.328C220.144 110.498 222.388 112.687 224.492 114.83C224.945 115.292 225.142 115.706 225.193 116.061C225.237 116.365 225.182 116.697 224.984 117.07L224.889 117.232C224.48 117.882 224.038 118.292 223.614 118.5C223.258 118.676 222.89 118.723 222.504 118.631L222.336 118.581C222.042 118.482 221.713 118.224 221.36 117.877L218.949 115.499C218.152 114.703 217.365 113.9 216.597 113.084C215.524 111.944 214.301 111.451 212.741 111.458C203.993 111.502 195.242 111.513 186.495 111.466C182.885 111.446 179.427 110.881 176.314 109.121C172.053 106.713 169.704 103.176 169.678 98.2521C169.639 90.702 169.666 83.1515 169.667 75.5952C169.667 74.5981 169.854 74.1425 170.085 73.909C170.315 73.6769 170.767 73.4861 171.765 73.484C176.929 73.4752 182.094 73.4821 187.26 73.4799L187.261 73.4827Z" fill="#707070" stroke="#707070" stroke-width="1.08899"/>
<path d="M320.745 73.4605C325.501 73.352 329.426 75.0157 332.74 78.3779C333.264 78.9076 333.455 79.4166 333.441 79.8841C333.427 80.3642 333.191 80.9401 332.589 81.5814C332.11 82.0895 331.618 82.3044 331.177 82.3192C330.794 82.3319 330.357 82.1978 329.905 81.8249L329.711 81.6506C328.008 80.0002 326.082 78.4422 323.413 78.0941H323.411C322.952 78.0344 322.461 77.9846 321.962 77.9846C315.942 77.9846 309.881 77.8926 303.837 78.0511C301.631 78.1095 299.415 78.6336 297.361 79.2486C296.223 79.5894 295.403 80.2571 294.887 81.1562C294.384 82.0353 294.2 83.0831 294.213 84.1604C294.224 85.2065 294.398 86.2336 294.887 87.1064C295.389 88.002 296.192 88.6767 297.334 89.0501C298.817 89.5349 300.476 90.0603 302.144 90.1576L302.479 90.1714C308.66 90.3117 314.894 90.2152 321.044 90.2794C324.364 90.3144 327.528 90.7652 330.363 92.3878C333.332 94.0878 335.014 96.4752 334.994 99.923C334.983 101.942 335.132 103.631 334.338 105.236C332.721 108.508 329.894 110.124 326.368 110.85C324.779 111.177 323.136 111.357 321.49 111.435L320.784 111.463C318.187 111.546 315.597 111.512 312.979 111.496L313.167 111.31H311.306C307.263 111.31 303.321 111.49 299.369 111.258H299.367C295.924 111.055 293.176 109.207 290.781 106.651L290.306 106.13C289.967 105.749 289.872 105.319 289.981 104.847C290.097 104.347 290.457 103.761 291.112 103.197C291.538 102.832 291.963 102.687 292.344 102.693C292.677 102.698 293.037 102.818 293.393 103.104L293.546 103.237C295.148 104.741 296.949 106.441 299.561 106.823H299.563C299.951 106.88 300.491 106.985 301.012 106.985C307.949 106.991 314.896 107.022 321.842 106.964C324.131 106.945 326.533 106.607 328.632 105.206L328.631 105.205C328.934 105.002 329.274 104.734 329.561 104.419C329.836 104.119 330.126 103.708 330.217 103.221C330.461 101.943 330.654 100.476 330.418 99.0883C330.182 97.6951 329.403 96.8397 328.452 96.2946C327.779 95.909 327.002 95.671 326.295 95.4819L325.618 95.3061C324.17 94.9289 322.644 94.7911 321.186 94.7772C318.275 94.7494 315.366 94.7548 312.463 94.7594C309.558 94.7637 306.658 94.7674 303.76 94.733H303.759C300.048 94.689 296.553 94.1737 293.573 92.0265H293.572C291.221 90.3307 289.897 88.1239 289.878 85.2167C289.863 83.2299 289.771 81.5148 290.542 79.9035C292.005 76.8467 294.546 75.1325 297.792 74.3687C299.738 73.9111 301.771 73.6557 303.774 73.61C306.591 73.5457 309.414 73.5403 312.243 73.5353C315.071 73.5302 317.908 73.5252 320.745 73.4605Z" fill="#707070" stroke="#707070" stroke-width="1.08899"/>
<path d="M254.634 73.4868V74.15L255.595 73.6681C259.127 73.6623 262.55 73.499 265.987 73.7138C270.354 73.9872 274.237 75.4536 277.214 78.735C279.087 80.7983 280.114 83.2353 280.168 85.992C280.249 90.059 280.2 94.1235 280.191 98.2119C280.185 100.751 279.573 102.883 278.445 104.676C277.312 106.472 275.636 107.969 273.44 109.191C270.408 110.879 267.067 111.428 263.571 111.475C259.474 111.527 255.377 111.548 251.28 111.52L247.186 111.475C243.004 111.408 239.068 110.692 235.726 108.258L235.404 108.017C232.26 105.596 230.526 102.481 230.545 98.4694C230.563 94.6563 230.587 90.8323 230.541 87.0108C230.507 84.2617 231.167 82.0028 232.396 80.136C233.63 78.2635 235.468 76.7377 237.864 75.5107C240.943 73.9315 244.311 73.5655 247.84 73.4993H247.841C250.102 73.4554 252.355 73.4807 254.634 73.4868ZM264.103 78.0081C258.408 77.9592 252.701 77.9337 246.998 78.0206C245.23 78.0483 243.387 78.2788 241.667 78.7932C239.806 79.3502 238.051 80.2097 236.788 81.6561C235.587 83.0297 234.891 84.8609 234.881 87.2753L234.89 87.7667C234.948 89.5226 234.942 91.2845 234.93 93.0592C234.917 94.8294 234.898 96.6164 234.927 98.4016C234.966 100.908 236.018 102.994 238.105 104.492C240.566 106.256 243.364 106.862 246.185 106.961C248.957 107.06 251.752 107.002 254.494 106.991V107.001H255.265C258.13 107.001 261.094 107.108 264.016 106.958C265.884 106.863 267.822 106.58 269.634 105.998C271.746 105.322 273.328 104.303 274.367 102.823C275.402 101.348 275.835 99.5068 275.833 97.312C275.833 93.8896 275.88 90.4309 275.818 86.9873C275.791 85.4772 275.476 84.0792 274.786 82.8576C274.18 81.7848 273.306 80.8795 272.143 80.1638L271.627 79.8688C269.254 78.6044 266.724 78.0315 264.103 78.0081Z" fill="#707070" stroke="#707070" stroke-width="1.08899"/>
<path d="M156.315 73.4854C156.894 73.5075 157.208 73.6647 157.378 73.8426C157.549 74.0208 157.697 74.3418 157.697 74.9335V109.822C157.697 110.651 157.538 110.993 157.374 111.156C157.208 111.322 156.856 111.482 156.011 111.489C155.168 111.495 154.578 111.482 154.15 111.419C153.725 111.357 153.572 111.262 153.501 111.193C153.431 111.123 153.333 110.971 153.268 110.548C153.203 110.122 153.186 109.537 153.186 108.696V75.5052C153.186 74.3674 153.342 73.9818 153.512 73.8136C153.661 73.665 153.978 73.5266 154.82 73.4938L155.215 73.4868C155.637 73.4868 155.956 73.4706 156.315 73.4854Z" fill="#707070" stroke="#707070" stroke-width="1.08899"/>
</g>
</svg>
