<svg width="354" height="185" viewBox="0 0 354 185" fill="none" xmlns="http://www.w3.org/2000/svg">
<path d="M170 93.1996V104.9H163.2V93.1996C163.2 89.1996 161 87.3996 156.3 87.3996C151.6 87.3996 150.8 88.2996 149.4 90.0996V104.9H142.6V93.1996C142.6 89.1996 140.4 87.3996 135.7 87.3996C131 87.3996 130.2 88.2996 128.8 90.0996V104.9H122V82.1996H128.4V85.2996C130.5 82.8996 133.6 81.5996 137.4 81.5996C141.2 81.5996 144.9 83.0996 147.1 85.8996C149.7 82.9996 153.3 81.5996 157.9 81.5996C165.3 81.5996 169.7 85.8996 169.7 93.1996H170ZM197.3 82.1996H203.7V104.9H197.3V101.8C194.9 104.1 190.9 105.5 186.8 105.5C179 105.5 173.4 100.6 173.4 93.5996C173.4 86.5996 179 81.6996 186.8 81.6996C194.6 81.6996 194.9 83.0996 197.3 85.3996V82.2996V82.1996ZM197 90.5996C195.1 88.5996 192.1 87.4996 188.2 87.4996C184.3 87.4996 180.2 89.7996 180.2 93.5996C180.2 97.3996 183.2 99.6996 188.2 99.6996C193.2 99.6996 195.1 98.5996 197 96.5996V90.5996ZM268.9 85.3996V82.2996H262.5V105H269.3V90.1996C270.4 88.3996 272.5 87.4996 275.9 87.4996C279.3 87.4996 278.9 87.5996 280.3 87.9996L280.8 82.0996C280.2 81.7996 279.1 81.6996 277.5 81.6996C273.9 81.6996 270.6 83.0996 269 85.3996H268.9ZM306.7 97.8996L309.1 102.2C306.6 104.1 301.6 105.5 296.2 105.5C286.5 105.5 281.1 101.2 281.1 93.4996C281.1 85.7996 286.4 81.5996 295.5 81.5996C304.6 81.5996 308.6 85.9996 308.6 92.3996C308.6 98.7996 308.6 94.0996 308.3 95.3996H287.5C288 98.6996 290.7 100.1 296.6 100.1C302.5 100.1 304.1 99.2996 306.7 97.9996V97.8996ZM287.6 90.9996H302.8C302.3 88.0996 299.9 86.5996 295.6 86.5996C291.3 86.5996 288.2 87.8996 287.7 90.9996H287.6ZM242.1 82.4996V105H248.9V87.7996H259V82.3996H248.9V81.8996C248.9 78.9996 250.5 77.7996 254.6 77.7996C258.7 77.7996 258.3 77.9996 261 78.3996L261.5 73.5996C259.3 72.9996 256.8 72.5996 254 72.5996C246.1 72.5996 242.2 75.8996 242.2 82.4996H242.1ZM238.7 93.5996C238.7 100.6 233.1 105.5 225.3 105.5C217.5 105.5 217.5 104.1 215.1 101.8V112.5H208.3V82.2996H214.7V85.3996C217.1 83.0996 221.1 81.6996 225.2 81.6996C233 81.6996 238.6 86.5996 238.6 93.5996H238.7ZM231.9 93.5996C231.9 89.7996 228.9 87.4996 223.9 87.4996C218.9 87.4996 217 88.5996 215.1 90.5996V96.5996C217 98.5996 220 99.6996 223.9 99.6996C227.8 99.6996 231.9 97.3996 231.9 93.5996ZM88.2004 82.8996C88.2004 77.1996 83.6004 72.5996 77.9004 72.5996C72.2004 72.5996 67.5004 77.0996 67.5004 82.8996C67.5004 88.6996 70.4004 93.4996 75.7004 97.7996H75.5004C60.8004 90.4996 54.3004 87.9996 50.1004 87.9996C45.9004 87.9996 44.9004 90.0996 44.9004 93.0996C44.9004 99.3996 52.5004 105.4 60.4004 105.4C73.7004 105.4 88.3004 93.5996 88.3004 82.7996L88.2004 82.8996ZM105.7 87.9996C100.8 87.9996 94.6004 90.8996 79.9004 100.3C86.9004 104 91.1004 105.4 95.3004 105.4C103.1 105.4 110.8 99.2996 110.8 93.0996C110.8 86.8996 108.7 87.9996 105.7 87.9996Z" fill="#707070"/>
</svg>
