<svg width="354" height="185" viewBox="0 0 354 185" fill="none" xmlns="http://www.w3.org/2000/svg">
<path d="M168.15 93.3306V108.286H159.554V93.3306C159.554 88.2178 156.773 85.9171 150.831 85.9171C144.889 85.9171 143.878 87.0675 142.108 89.3682V108.286H133.511V93.3306C133.511 88.2178 130.73 85.9171 124.788 85.9171C118.847 85.9171 117.835 87.0675 116.066 89.3682V108.286H107.469V79.2706H115.56V83.2329C118.215 80.1653 122.134 78.5036 126.938 78.5036C131.742 78.5036 136.419 80.4209 139.2 83.9998C142.487 80.2931 147.038 78.5036 152.854 78.5036C162.209 78.5036 167.771 83.9998 167.771 93.3306H168.15ZM202.663 79.2706H210.754V108.286H202.663V104.323C199.629 107.263 194.572 109.053 189.389 109.053C179.528 109.053 172.449 102.79 172.449 93.8418C172.449 84.8946 179.528 78.6315 189.389 78.6315C199.25 78.6315 199.629 80.4209 202.663 83.3607V79.3984V79.2706ZM202.284 90.0073C199.882 87.4509 196.089 86.0449 191.159 86.0449C186.228 86.0449 181.045 88.9847 181.045 93.8418C181.045 98.6989 184.838 101.639 191.159 101.639C197.48 101.639 199.882 100.233 202.284 97.6764V90.0073ZM293.179 83.3607V79.3984H285.088V108.414H293.685V89.496C295.076 87.1953 297.73 86.0449 302.029 86.0449C306.327 86.0449 305.821 86.1727 307.591 86.684L308.223 79.1427C307.465 78.7593 306.074 78.6315 304.051 78.6315C299.5 78.6315 295.328 80.4209 293.306 83.3607H293.179ZM340.966 99.338L344 104.835C340.84 107.263 334.519 109.053 327.692 109.053C315.429 109.053 308.603 103.557 308.603 93.714C308.603 83.872 315.303 78.5036 326.807 78.5036C338.311 78.5036 343.368 84.1276 343.368 92.308C343.368 100.488 343.368 94.4809 342.989 96.1426H316.693C317.325 100.361 320.739 102.151 328.198 102.151C335.656 102.151 337.679 101.127 340.966 99.4658V99.338ZM316.82 90.5186H336.036C335.403 86.8118 332.369 84.8946 326.933 84.8946C321.497 84.8946 317.578 86.5562 316.946 90.5186H316.82ZM259.299 79.654V108.414H267.895V86.4284H280.664V79.5262H267.895V78.8871C267.895 75.1804 269.918 73.6465 275.101 73.6465C280.285 73.6465 279.779 73.9022 283.192 74.4135L283.824 68.2782C281.043 67.5113 277.883 67 274.343 67C264.356 67 259.425 71.218 259.425 79.654H259.299ZM255.001 93.8418C255.001 102.79 247.921 109.053 238.06 109.053C228.2 109.053 228.2 107.263 225.166 104.323V118H216.569V79.3984H224.66V83.3607C227.694 80.4209 232.751 78.6315 237.934 78.6315C247.795 78.6315 254.874 84.8946 254.874 93.8418H255.001ZM246.404 93.8418C246.404 88.9847 242.612 86.0449 236.291 86.0449C229.97 86.0449 227.568 87.4509 225.166 90.0073V97.6764C227.568 100.233 231.36 101.639 236.291 101.639C241.221 101.639 246.404 98.6989 246.404 93.8418ZM64.7397 80.1653C64.7397 72.8796 58.9244 67 51.7185 67C44.5125 67 38.5708 72.7518 38.5708 80.1653C38.5708 87.5787 42.237 93.714 48.9372 99.2102H48.6844C30.1007 89.8795 21.8834 86.684 16.5738 86.684C11.2642 86.684 10 89.3682 10 93.2027C10 101.255 19.6079 108.925 29.595 108.925C46.4088 108.925 64.8661 93.8418 64.8661 80.0375L64.7397 80.1653ZM86.8626 86.684C80.668 86.684 72.8305 90.3907 54.2468 102.406C63.0962 107.135 68.4058 108.925 73.7155 108.925C83.5757 108.925 93.31 101.127 93.31 93.2027C93.31 85.278 90.6552 86.684 86.8626 86.684Z" fill="#707070"/>
</svg>
