<svg width="354" height="185" viewBox="0 0 354 185" fill="none" xmlns="http://www.w3.org/2000/svg">
<g style="mix-blend-mode:luminosity">
<path fill-rule="evenodd" clip-rule="evenodd" d="M253.306 68.4844C254.133 68.4917 255.391 68.9169 257.061 69.7601C259.405 70.794 261.089 71.3102 262.113 71.3102C265.135 71.3102 267.528 69.5402 269.303 66.0004L265.79 63.0693C264.543 65.0591 263.396 66.0586 262.372 66.0586C261.814 66.0586 260.579 65.5679 258.67 64.5903C256.765 63.6345 255.106 63.1548 253.665 63.1548C253.043 63.1584 252.451 63.2256 251.923 63.3783C251.4 63.5037 250.883 63.7326 250.382 64.0634C249.885 64.385 249.398 64.792 248.916 65.3135C248.444 65.8114 247.939 66.4238 247.422 67.1597L246.625 68.2883L250.244 71.3629C251.273 69.4494 252.293 68.4827 253.304 68.4827M252.164 103.098L257.471 91.8677L262.763 103.098H252.162H252.164ZM258.585 80.2415H256.407L236.737 121.922H243.264L249.453 108.838H265.374L271.617 121.922H278.002L258.583 80.2415H258.585ZM186.469 80.2415H180.603V121.929H201.756V116.196H186.469V80.2415ZM216.649 121.922H222.525V80.2415H216.649V121.922ZM139.903 121.929H164.401V116.139H145.764V102.393H164.401V96.6105H145.764V86.0291H164.562V80.2433H139.903V121.931V121.929ZM115.005 80.2415L99.5887 111.693L84.0232 80.2415H81.9779L76 121.922H81.7602L85.3535 95.4874L98.4636 121.922H100.659L113.595 95.7109L117.218 121.929H123.032L117.047 80.2415H115.002H115.005Z" fill="#707070"/>
<mask id="mask0_2707_48559" style="mask-type:luminance" maskUnits="userSpaceOnUse" x="76" y="63" width="203" height="59">
<g style="mix-blend-mode:luminosity">
<path fill-rule="evenodd" clip-rule="evenodd" d="M253.306 68.4844C254.133 68.4917 255.391 68.9169 257.061 69.7601C259.405 70.794 261.089 71.3102 262.113 71.3102C265.135 71.3102 267.528 69.5402 269.303 66.0004L265.79 63.0693C264.543 65.0591 263.396 66.0586 262.372 66.0586C261.814 66.0586 260.579 65.5679 258.67 64.5903C256.765 63.6345 255.106 63.1548 253.665 63.1548C253.043 63.1584 252.451 63.2256 251.923 63.3783C251.4 63.5037 250.883 63.7326 250.382 64.0634C249.885 64.385 249.398 64.792 248.916 65.3135C248.444 65.8114 247.939 66.4238 247.422 67.1597L246.625 68.2883L250.244 71.3629C251.273 69.4494 252.293 68.4827 253.304 68.4827M252.164 103.098L257.471 91.8677L262.763 103.098H252.162H252.164ZM258.585 80.2415H256.407L236.737 121.922H243.264L249.453 108.838H265.374L271.617 121.922H278.002L258.583 80.2415H258.585ZM186.469 80.2415H180.603V121.929H201.756V116.196H186.469V80.2415ZM216.649 121.922H222.525V80.2415H216.649V121.922ZM139.903 121.929H164.401V116.139H145.764V102.393H164.401V96.6105H145.764V86.0291H164.562V80.2433H139.903V121.931V121.929ZM115.005 80.2415L99.5887 111.693L84.0232 80.2415H81.9779L76 121.922H81.7602L85.3535 95.4874L98.4636 121.922H100.659L113.595 95.7109L117.218 121.929H123.032L117.047 80.2415H115.002H115.005Z" fill="white"/>
</g>
</mask>
<g mask="url(#mask0_2707_48559)">
<path d="M257.061 69.7601L256.566 70.7386L256.592 70.7516L256.618 70.7631L257.061 69.7601ZM269.303 66.0004L270.283 66.4918L270.673 65.7151L270.005 65.1586L269.303 66.0004ZM265.79 63.0693L266.492 62.2275L265.528 61.423L264.861 62.4873L265.79 63.0693ZM258.67 64.5903L259.17 63.6145L259.162 63.6104L258.67 64.5903ZM253.665 63.1548V62.0585H253.659L253.665 63.1548ZM251.923 63.3783L252.179 64.4443L252.203 64.4384L252.227 64.4314L251.923 63.3783ZM250.382 64.0634L250.978 64.9839L250.986 64.9782L250.382 64.0634ZM248.916 65.3135L249.712 66.0677L249.72 66.0582L248.916 65.3135ZM247.422 67.1597L248.318 67.792L248.319 67.7901L247.422 67.1597ZM246.625 68.2883L245.73 67.656L245.152 68.4748L245.916 69.1237L246.625 68.2883ZM250.244 71.3629L249.534 72.1983L250.568 73.0762L251.21 71.8821L250.244 71.3629ZM252.164 103.098V104.194H252.859L253.155 103.566L252.164 103.098ZM257.471 91.8677L258.462 91.4003L257.472 89.2988L256.48 91.3993L257.471 91.8677ZM262.763 103.098V104.194H264.491L263.754 102.63L262.763 103.098ZM256.407 80.2415V79.1452H255.712L255.416 79.7736L256.407 80.2415ZM236.737 121.922L235.745 121.454L235.007 123.018H236.737V121.922ZM243.264 121.922V123.018H243.959L244.255 122.39L243.264 121.922ZM249.453 108.838V107.742H248.759L248.462 108.369L249.453 108.838ZM265.374 108.838L266.364 108.366L266.066 107.742H265.374V108.838ZM271.617 121.922L270.628 122.394L270.925 123.018H271.617V121.922ZM278.002 121.922V123.018H279.722L278.995 121.459L278.002 121.922ZM258.583 80.2415V79.1452H256.863L257.589 80.7044L258.583 80.2415ZM186.469 80.2415H187.565V79.1452H186.469V80.2415ZM180.603 80.2415V79.1452H179.507V80.2415H180.603ZM180.603 121.929H179.507V123.025H180.603V121.929ZM201.756 121.929V123.025H202.853V121.929H201.756ZM201.756 116.196H202.853V115.099H201.756V116.196ZM186.469 116.196H185.372V117.292H186.469V116.196ZM216.649 121.922H215.552V123.018H216.649V121.922ZM222.525 121.922V123.018H223.621V121.922H222.525ZM222.525 80.2415H223.621V79.1452H222.525V80.2415ZM216.649 80.2415V79.1452H215.552V80.2415H216.649ZM139.903 121.929V120.833H138.806V121.929H139.903ZM164.401 121.929V123.025H165.497V121.929H164.401ZM164.401 116.139H165.497V115.043H164.401V116.139ZM145.764 116.139H144.668V117.236H145.764V116.139ZM145.764 102.393V101.296H144.668V102.393H145.764ZM164.401 102.393V103.489H165.497V102.393H164.401ZM164.401 96.6105H165.497V95.5142H164.401V96.6105ZM145.764 96.6105H144.668V97.7067H145.764V96.6105ZM145.764 86.0291V84.9329H144.668V86.0291H145.764ZM164.562 86.0291V87.1254H165.658V86.0291H164.562ZM164.562 80.2433H165.658V79.147H164.562V80.2433ZM139.903 80.2433V79.147H138.806V80.2433H139.903ZM115.005 80.2415L115.99 80.724L116.764 79.1452H115.005V80.2415ZM99.5887 111.693L98.6062 112.179L99.5935 114.174L100.573 112.175L99.5887 111.693ZM84.0232 80.2415L85.0057 79.7552L84.7038 79.1452H84.0232V80.2415ZM81.9779 80.2415V79.1452H81.0277L80.8928 80.0858L81.9779 80.2415ZM76 121.922L74.9148 121.766L74.7353 123.018H76V121.922ZM81.7602 121.922V123.018H82.7175L82.8464 122.069L81.7602 121.922ZM85.3535 95.4874L86.3356 95.0003L84.7484 91.8L84.2672 95.3398L85.3535 95.4874ZM98.4636 121.922L97.4815 122.409L97.7836 123.018H98.4636V121.922ZM100.659 121.922V123.018H101.341L101.643 122.407L100.659 121.922ZM113.595 95.7109L114.681 95.5609L114.193 92.0237L112.612 95.2258L113.595 95.7109ZM117.218 121.929L116.132 122.079L116.262 123.025H117.218V121.929ZM123.032 121.929V123.025H124.297L124.117 121.773L123.032 121.929ZM117.047 80.2415L118.132 80.0857L117.997 79.1452H117.047V80.2415ZM253.306 68.4844L253.296 69.5807C253.847 69.5855 254.905 69.8999 256.566 70.7386L257.061 69.7601L257.555 68.7815C255.876 67.934 254.419 67.3979 253.315 67.3882L253.306 68.4844ZM257.061 69.7601L256.618 70.7631C258.953 71.7929 260.832 72.4064 262.113 72.4064V71.3102V70.2139C261.347 70.2139 259.857 69.7952 257.503 68.757L257.061 69.7601ZM262.113 71.3102V72.4064C265.683 72.4064 268.391 70.2661 270.283 66.4918L269.303 66.0004L268.323 65.509C266.666 68.8143 264.587 70.2139 262.113 70.2139V71.3102ZM269.303 66.0004L270.005 65.1586L266.492 62.2275L265.79 63.0693L265.087 63.9111L268.601 66.8422L269.303 66.0004ZM265.79 63.0693L264.861 62.4873C264.267 63.4347 263.735 64.0839 263.276 64.4847C262.812 64.8903 262.517 64.9623 262.372 64.9623V66.0586V67.1549C263.252 67.1549 264.042 66.7272 264.719 66.1356C265.401 65.5392 266.066 64.6937 266.719 63.6514L265.79 63.0693ZM262.372 66.0586V64.9623C262.374 64.9623 262.299 64.9594 262.116 64.9092C261.943 64.8621 261.717 64.7854 261.432 64.6721C260.861 64.4455 260.11 64.0959 259.17 63.6145L258.67 64.5903L258.171 65.5661C259.14 66.0623 259.96 66.4469 260.623 66.71C261.239 66.9545 261.862 67.1549 262.372 67.1549V66.0586ZM258.67 64.5903L259.162 63.6104C257.174 62.6132 255.341 62.0585 253.665 62.0585V63.1548V64.251C254.871 64.251 256.356 64.6558 258.179 65.5702L258.67 64.5903ZM253.665 63.1548L253.659 62.0585C252.966 62.0626 252.269 62.137 251.618 62.3251L251.923 63.3783L252.227 64.4314C252.633 64.3143 253.119 64.2543 253.671 64.251L253.665 63.1548ZM251.923 63.3783L251.667 62.3123C251.009 62.4703 250.375 62.7546 249.778 63.1485L250.382 64.0634L250.986 64.9782C251.391 64.7107 251.792 64.5371 252.179 64.4443L251.923 63.3783ZM250.382 64.0634L249.787 63.1429C249.207 63.5178 248.651 63.9854 248.111 64.5689L248.916 65.3135L249.72 66.0582C250.146 65.5987 250.563 65.2523 250.978 64.9839L250.382 64.0634ZM248.916 65.3135L248.12 64.5595C247.608 65.0993 247.07 65.7536 246.525 66.5294L247.422 67.1597L248.319 67.7901C248.808 67.0939 249.279 66.5235 249.711 66.0676L248.916 65.3135ZM247.422 67.1597L246.527 66.5275L245.73 67.656L246.625 68.2883L247.521 68.9205L248.318 67.792L247.422 67.1597ZM246.625 68.2883L245.916 69.1237L249.534 72.1983L250.244 71.3629L250.954 70.5274L247.335 67.4528L246.625 68.2883ZM250.244 71.3629L251.21 71.8821C251.696 70.9779 252.143 70.371 252.533 70.0028C252.92 69.6376 253.172 69.5789 253.304 69.5789V68.4827V67.3864C252.425 67.3864 251.661 67.8111 251.029 68.4076C250.399 69.0012 249.821 69.8344 249.279 70.8437L250.244 71.3629ZM252.164 103.098L253.155 103.566L258.462 92.336L257.471 91.8677L256.48 91.3993L251.173 102.629L252.164 103.098ZM257.471 91.8677L256.479 92.335L261.771 103.565L262.763 103.098L263.754 102.63L258.462 91.4003L257.471 91.8677ZM262.763 103.098V102.001H252.162V103.098V104.194H262.763V103.098ZM252.162 103.098V104.194H252.164V103.098V102.001H252.162V103.098ZM258.585 80.2415V79.1452H256.407V80.2415V81.3377H258.585V80.2415ZM256.407 80.2415L255.416 79.7736L235.745 121.454L236.737 121.922L237.728 122.39L257.399 80.7094L256.407 80.2415ZM236.737 121.922V123.018H243.264V121.922V120.825H236.737V121.922ZM243.264 121.922L244.255 122.39L250.444 109.307L249.453 108.838L248.462 108.369L242.273 121.453L243.264 121.922ZM249.453 108.838V109.934H265.374V108.838V107.742H249.453V108.838ZM265.374 108.838L264.385 109.31L270.628 122.394L271.617 121.922L272.606 121.45L266.364 108.366L265.374 108.838ZM271.617 121.922V123.018H278.002V121.922V120.825H271.617V121.922ZM278.002 121.922L278.995 121.459L259.577 79.7785L258.583 80.2415L257.589 80.7044L277.008 122.385L278.002 121.922ZM258.583 80.2415V81.3377H258.585V80.2415V79.1452H258.583V80.2415ZM186.469 80.2415V79.1452H180.603V80.2415V81.3377H186.469V80.2415ZM180.603 80.2415H179.507V121.929H180.603H181.699V80.2415H180.603ZM180.603 121.929V123.025H201.756V121.929V120.833H180.603V121.929ZM201.756 121.929H202.853V116.196H201.756H200.66V121.929H201.756ZM201.756 116.196V115.099H186.469V116.196V117.292H201.756V116.196ZM186.469 116.196H187.565V80.2415H186.469H185.372V116.196H186.469ZM216.649 121.922V123.018H222.525V121.922V120.825H216.649V121.922ZM222.525 121.922H223.621V80.2415H222.525H221.429V121.922H222.525ZM222.525 80.2415V79.1452H216.649V80.2415V81.3377H222.525V80.2415ZM216.649 80.2415H215.552V121.922H216.649H217.745V80.2415H216.649ZM139.903 121.929V123.025H164.401V121.929V120.833H139.903V121.929ZM164.401 121.929H165.497V116.139H164.401H163.304V121.929H164.401ZM164.401 116.139V115.043H145.764V116.139V117.236H164.401V116.139ZM145.764 116.139H146.861V102.393H145.764H144.668V116.139H145.764ZM145.764 102.393V103.489H164.401V102.393V101.296H145.764V102.393ZM164.401 102.393H165.497V96.6105H164.401H163.304V102.393H164.401ZM164.401 96.6105V95.5142H145.764V96.6105V97.7067H164.401V96.6105ZM145.764 96.6105H146.861V86.0291H145.764H144.668V96.6105H145.764ZM145.764 86.0291V87.1254H164.562V86.0291V84.9329H145.764V86.0291ZM164.562 86.0291H165.658V80.2433H164.562H163.466V86.0291H164.562ZM164.562 80.2433V79.147H139.903V80.2433V81.3395H164.562V80.2433ZM139.903 80.2433H138.806V121.931H139.903H140.999V80.2433H139.903ZM139.903 121.931H140.999V121.929H139.903H138.806V121.931H139.903ZM115.005 80.2415L114.021 79.759L98.6044 111.21L99.5887 111.693L100.573 112.175L115.99 80.724L115.005 80.2415ZM99.5887 111.693L100.571 111.207L85.0057 79.7552L84.0232 80.2415L83.0407 80.7277L98.6062 112.179L99.5887 111.693ZM84.0232 80.2415V79.1452H81.9779V80.2415V81.3377H84.0232V80.2415ZM81.9779 80.2415L80.8928 80.0858L74.9148 121.766L76 121.922L77.0852 122.077L83.0631 80.3971L81.9779 80.2415ZM76 121.922V123.018H81.7602V121.922V120.825H76V121.922ZM81.7602 121.922L82.8464 122.069L86.4397 95.6351L85.3535 95.4874L84.2672 95.3398L80.6739 121.774L81.7602 121.922ZM85.3535 95.4874L84.3714 95.9745L97.4815 122.409L98.4636 121.922L99.4457 121.435L86.3356 95.0003L85.3535 95.4874ZM98.4636 121.922V123.018H100.659V121.922V120.825H98.4636V121.922ZM100.659 121.922L101.643 122.407L114.578 96.1961L113.595 95.7109L112.612 95.2258L99.6764 121.436L100.659 121.922ZM113.595 95.7109L112.509 95.861L116.132 122.079L117.218 121.929L118.304 121.779L114.681 95.5609L113.595 95.7109ZM117.218 121.929V123.025H123.032V121.929V120.833H117.218V121.929ZM123.032 121.929L124.117 121.773L118.132 80.0857L117.047 80.2415L115.962 80.3973L121.947 122.085L123.032 121.929ZM117.047 80.2415V79.1452H115.002V80.2415V81.3377H117.047V80.2415ZM115.002 80.2415V81.3377H115.005V80.2415V79.1452H115.002V80.2415Z" fill="#707070"/>
</g>
</g>
</svg>
