<svg width="354" height="185" viewBox="0 0 354 185" fill="none" xmlns="http://www.w3.org/2000/svg">
<g style="mix-blend-mode:luminosity">
<path fill-rule="evenodd" clip-rule="evenodd" d="M289.569 57.0711C290.789 57.0819 292.645 57.7091 295.109 58.9531C298.567 60.4783 301.051 61.2398 302.562 61.2398C307.02 61.2398 310.55 58.6286 313.169 53.4066L307.986 49.0825C306.147 52.0179 304.455 53.4924 302.944 53.4924C302.121 53.4924 300.299 52.7685 297.483 51.3263C294.672 49.9163 292.225 49.2086 290.099 49.2086C289.181 49.2139 288.308 49.3131 287.529 49.5384C286.758 49.7233 285.995 50.061 285.256 50.549C284.523 51.0235 283.804 51.6239 283.093 52.3932C282.397 53.1278 281.652 54.0312 280.889 55.1168L279.713 56.7818L285.052 61.3176C286.57 58.4947 288.075 57.0686 289.566 57.0686M287.885 108.135L295.714 91.5671L303.521 108.135H287.882H287.885ZM297.357 74.4157H294.144L265.126 135.905H274.755L283.885 116.602H307.373L316.583 135.905H326.002L297.354 74.4157H297.357ZM190.969 74.4157H182.315V135.915H213.521V127.457H190.969V74.4157ZM235.491 135.905H244.16V74.4157H235.491V135.905ZM122.272 135.915H158.413V127.373H130.919V107.095H158.413V98.5639H130.919V82.9538H158.65V74.4183H122.272V135.918V135.915ZM85.5418 74.4157L62.7991 120.814L39.8362 74.4157H36.8189L28 135.905H36.4977L41.7987 96.9071L61.1393 135.905H64.378L83.4618 97.2368L88.8066 135.915H97.3836L88.5543 74.4157H85.5374H85.5418Z" fill="#707070"/>
<mask id="mask0_2707_48559" style="mask-type:luminance" maskUnits="userSpaceOnUse" x="28" y="49" width="299" height="87">
<g style="mix-blend-mode:luminosity">
<path fill-rule="evenodd" clip-rule="evenodd" d="M289.569 57.0711C290.789 57.0819 292.645 57.7091 295.109 58.9531C298.567 60.4783 301.051 61.2398 302.562 61.2398C307.02 61.2398 310.55 58.6286 313.169 53.4066L307.986 49.0825C306.147 52.0179 304.455 53.4924 302.944 53.4924C302.121 53.4924 300.299 52.7685 297.483 51.3263C294.672 49.9163 292.225 49.2086 290.099 49.2086C289.181 49.2139 288.308 49.3131 287.529 49.5384C286.758 49.7233 285.995 50.061 285.256 50.549C284.523 51.0235 283.804 51.6239 283.093 52.3932C282.397 53.1278 281.652 54.0312 280.889 55.1168L279.713 56.7818L285.052 61.3176C286.57 58.4947 288.075 57.0686 289.566 57.0686M287.885 108.135L295.714 91.5671L303.521 108.135H287.882H287.885ZM297.357 74.4157H294.144L265.126 135.905H274.755L283.885 116.602H307.373L316.583 135.905H326.002L297.354 74.4157H297.357ZM190.969 74.4157H182.315V135.915H213.521V127.457H190.969V74.4157ZM235.491 135.905H244.16V74.4157H235.491V135.905ZM122.272 135.915H158.413V127.373H130.919V107.095H158.413V98.5639H130.919V82.9538H158.65V74.4183H122.272V135.918V135.915ZM85.5418 74.4157L62.7991 120.814L39.8362 74.4157H36.8189L28 135.905H36.4977L41.7987 96.9071L61.1393 135.905H64.378L83.4618 97.2368L88.8066 135.915H97.3836L88.5543 74.4157H85.5374H85.5418Z" fill="white"/>
</g>
</mask>
<g mask="url(#mask0_2707_48559)">
<path d="M295.109 58.9531L294.379 60.3966L294.417 60.4158L294.455 60.4327L295.109 58.9531ZM313.169 53.4066L314.615 54.1315L315.19 52.9857L314.204 52.1647L313.169 53.4066ZM307.986 49.0825L309.022 47.8406L307.6 46.6538L306.616 48.2239L307.986 49.0825ZM297.483 51.3264L298.22 49.8868L298.208 49.8808L297.483 51.3264ZM290.099 49.2086V47.5913H290.09L290.099 49.2086ZM287.529 49.5384L287.907 51.111L287.942 51.1023L287.978 51.0919L287.529 49.5384ZM285.256 50.549L286.135 51.907L286.147 51.8986L285.256 50.549ZM283.093 52.3932L284.267 53.5059L284.279 53.4919L283.093 52.3932ZM280.889 55.1168L282.211 56.0496L282.212 56.0468L280.889 55.1168ZM279.713 56.7818L278.393 55.849L277.54 57.0569L278.667 58.0142L279.713 56.7818ZM285.052 61.3176L284.005 62.55L285.53 63.8451L286.477 62.0835L285.052 61.3176ZM287.885 108.135V109.751H288.91L289.347 108.825L287.885 108.135ZM295.714 91.5671L297.176 90.8776L295.715 87.7774L294.252 90.8761L295.714 91.5671ZM303.521 108.135V109.751H306.07L304.983 107.444L303.521 108.135ZM294.144 74.4157V72.7984H293.119L292.682 73.7254L294.144 74.4157ZM265.126 135.905L263.663 135.214L262.574 137.521H265.126V135.905ZM274.755 135.905V137.521H275.78L276.217 136.595L274.755 135.905ZM283.885 116.602V114.986H282.861L282.423 115.911L283.885 116.602ZM307.373 116.602L308.833 115.906L308.394 114.986H307.373V116.602ZM316.583 135.905L315.124 136.601L315.562 137.521H316.583V135.905ZM326.002 135.905V137.521H328.539L327.467 135.221L326.002 135.905ZM297.354 74.4157V72.7984H294.817L295.888 75.0986L297.354 74.4157ZM190.969 74.4157H192.585V72.7984H190.969V74.4157ZM182.315 74.4157V72.7984H180.698V74.4157H182.315ZM182.315 135.915H180.698V137.532H182.315V135.915ZM213.521 135.915V137.532H215.139V135.915H213.521ZM213.521 127.457H215.139V125.839H213.521V127.457ZM190.969 127.457H189.35V129.074H190.969V127.457ZM235.491 135.905H233.873V137.521H235.491V135.905ZM244.16 135.905V137.521H245.777V135.905H244.16ZM244.16 74.4157H245.777V72.7984H244.16V74.4157ZM235.491 74.4157V72.7984H233.873V74.4157H235.491ZM122.272 135.915V134.298H120.654V135.915H122.272ZM158.413 135.915V137.532H160.03V135.915H158.413ZM158.413 127.373H160.03V125.756H158.413V127.373ZM130.919 127.373H129.302V128.992H130.919V127.373ZM130.919 107.095V105.476H129.302V107.095H130.919ZM158.413 107.095V108.711H160.03V107.095H158.413ZM158.413 98.5639H160.03V96.9466H158.413V98.5639ZM130.919 98.5639H129.302V100.181H130.919V98.5639ZM130.919 82.9538V81.3366H129.302V82.9538H130.919ZM158.65 82.9538V84.5711H160.267V82.9538H158.65ZM158.65 74.4183H160.267V72.801H158.65V74.4183ZM122.272 74.4183V72.801H120.654V74.4183H122.272ZM85.5418 74.4157L86.9949 75.1275L88.1368 72.7984H85.5418V74.4157ZM62.799 120.814L61.3496 121.531L62.8061 124.474L64.2511 121.525L62.799 120.814ZM39.8362 74.4157L41.2856 73.6983L40.8402 72.7984H39.8362V74.4157ZM36.8188 74.4157V72.7984H35.4171L35.2181 74.186L36.8188 74.4157ZM28 135.905L26.3991 135.674L26.1342 137.521H28V135.905ZM36.4977 135.905V137.521H37.9099L38.1001 136.121L36.4977 135.905ZM41.7987 96.9071L43.2475 96.1885L40.906 91.4673L40.1961 96.6893L41.7987 96.9071ZM61.1393 135.905L59.6904 136.623L60.1361 137.521H61.1393V135.905ZM64.378 135.905V137.521H65.3841L65.8296 136.62L64.378 135.905ZM83.4617 97.2368L85.0639 97.0155L84.3439 91.7973L82.0116 96.5212L83.4617 97.2368ZM88.8066 135.915L87.2044 136.136L87.3962 137.532H88.8066V135.915ZM97.3836 135.915V137.532H99.2498L98.9842 135.685L97.3836 135.915ZM88.5543 74.4157L90.1549 74.1858L89.9558 72.7984H88.5543V74.4157ZM289.569 57.0711L289.555 58.6884C290.368 58.6955 291.928 59.1593 294.379 60.3966L295.109 58.9531L295.838 57.5094C293.361 56.2591 291.211 55.4682 289.583 55.4539L289.569 57.0711ZM295.109 58.9531L294.455 60.4327C297.9 61.9519 300.672 62.857 302.562 62.857V61.2398V59.6225C301.432 59.6225 299.234 59.0048 295.761 57.4733L295.109 58.9531ZM302.562 61.2398V62.857C307.829 62.857 311.823 59.6995 314.615 54.1315L313.169 53.4066L311.723 52.6817C309.279 57.5578 306.212 59.6225 302.562 59.6225V61.2398ZM313.169 53.4066L314.204 52.1647L309.022 47.8406L307.986 49.0825L306.949 50.3244L312.133 54.6485L313.169 53.4066ZM307.986 49.0825L306.616 48.2239C305.74 49.6216 304.955 50.5793 304.278 51.1706C303.593 51.7689 303.158 51.8751 302.944 51.8751V53.4925V55.1098C304.242 55.1098 305.408 54.4788 306.406 53.606C307.412 52.7262 308.393 51.4789 309.357 49.9412L307.986 49.0825ZM302.944 53.4925V51.8751C302.947 51.8751 302.836 51.8709 302.566 51.7968C302.311 51.7273 301.978 51.6142 301.557 51.447C300.715 51.1127 299.607 50.597 298.22 49.8868L297.483 51.3264L296.746 52.7659C298.176 53.4979 299.386 54.0653 300.364 54.4534C301.272 54.8141 302.192 55.1098 302.944 55.1098V53.4925ZM297.483 51.3264L298.208 49.8808C295.276 48.4097 292.571 47.5913 290.099 47.5913V49.2086V50.8258C291.878 50.8258 294.069 51.423 296.758 52.7719L297.483 51.3264ZM290.099 49.2086L290.09 47.5913C289.068 47.5974 288.04 47.7071 287.079 47.9846L287.529 49.5384L287.978 51.0919C288.577 50.9192 289.294 50.8307 290.108 50.8258L290.099 49.2086ZM287.529 49.5384L287.151 47.9658C286.181 48.1988 285.245 48.6182 284.365 49.1993L285.256 50.549L286.147 51.8986C286.744 51.504 287.336 51.2479 287.907 51.111L287.529 49.5384ZM285.256 50.549L284.378 49.1911C283.522 49.7442 282.702 50.434 281.906 51.2948L283.093 52.3932L284.279 53.4919C284.908 52.814 285.523 52.303 286.135 51.907L285.256 50.549ZM283.093 52.3932L281.919 51.2809C281.163 52.0773 280.37 53.0425 279.566 54.187L280.889 55.1168L282.212 56.0468C282.934 55.0198 283.629 54.1783 284.266 53.5057L283.093 52.3932ZM280.889 55.1168L279.569 54.1842L278.393 55.849L279.713 56.7818L281.035 57.7145L282.211 56.0496L280.889 55.1168ZM279.713 56.7818L278.667 58.0142L284.005 62.55L285.052 61.3176L286.1 60.085L280.761 55.5492L279.713 56.7818ZM285.052 61.3176L286.477 62.0835C287.194 60.7496 287.854 59.8543 288.429 59.3111C289 58.7723 289.372 58.6858 289.566 58.6858V57.0686V55.4513C288.27 55.4513 287.143 56.0778 286.21 56.9578C285.281 57.8335 284.428 59.0627 283.629 60.5516L285.052 61.3176ZM287.885 108.135L289.347 108.825L297.176 92.258L295.714 91.5671L294.252 90.8761L286.423 107.443L287.885 108.135ZM295.714 91.5671L294.25 92.2565L302.057 108.823L303.521 108.135L304.983 107.444L297.176 90.8776L295.714 91.5671ZM303.521 108.135V106.516H287.882V108.135V109.751H303.521V108.135ZM287.882 108.135V109.751H287.885V108.135V106.516H287.882V108.135ZM297.357 74.4157V72.7984H294.144V74.4157V76.0328H297.357V74.4157ZM294.144 74.4157L292.682 73.7254L263.663 135.214L265.126 135.905L266.588 136.595L295.608 75.1059L294.144 74.4157ZM265.126 135.905V137.521H274.755V135.905V134.286H265.126V135.905ZM274.755 135.905L276.217 136.595L285.347 117.294L283.885 116.602L282.423 115.911L273.293 135.213L274.755 135.905ZM283.885 116.602V118.219H307.373V116.602V114.986H283.885V116.602ZM307.373 116.602L305.914 117.299L315.124 136.601L316.583 135.905L318.042 135.208L308.833 115.906L307.373 116.602ZM316.583 135.905V137.521H326.002V135.905V134.286H316.583V135.905ZM326.002 135.905L327.467 135.221L298.821 73.7326L297.354 74.4157L295.888 75.0986L324.536 136.588L326.002 135.905ZM297.354 74.4157V76.0328H297.357V74.4157V72.7984H297.354V74.4157ZM190.969 74.4157V72.7984H182.315V74.4157V76.0328H190.969V74.4157ZM182.315 74.4157H180.698V135.915H182.315H183.932V74.4157H182.315ZM182.315 135.915V137.532H213.521V135.915V134.298H182.315V135.915ZM213.521 135.915H215.139V127.457H213.521H211.904V135.915H213.521ZM213.521 127.457V125.839H190.969V127.457V129.074H213.521V127.457ZM190.969 127.457H192.585V74.4157H190.969H189.35V127.457H190.969ZM235.491 135.905V137.521H244.16V135.905V134.286H235.491V135.905ZM244.16 135.905H245.777V74.4157H244.16H242.543V135.905H244.16ZM244.16 74.4157V72.7984H235.491V74.4157V76.0328H244.16V74.4157ZM235.491 74.4157H233.873V135.905H235.491H237.108V74.4157H235.491ZM122.272 135.915V137.532H158.413V135.915V134.298H122.272V135.915ZM158.413 135.915H160.03V127.373H158.413H156.795V135.915H158.413ZM158.413 127.373V125.756H130.919V127.373V128.992H158.413V127.373ZM130.919 127.373H132.537V107.095H130.919H129.302V127.373H130.919ZM130.919 107.095V108.711H158.413V107.095V105.476H130.919V107.095ZM158.413 107.095H160.03V98.5639H158.413H156.795V107.095H158.413ZM158.413 98.5639V96.9466H130.919V98.5639V100.181H158.413V98.5639ZM130.919 98.5639H132.537V82.9538H130.919H129.302V98.5639H130.919ZM130.919 82.9538V84.5711H158.65V82.9538V81.3366H130.919V82.9538ZM158.65 82.9538H160.267V74.4183H158.65H157.034V82.9538H158.65ZM158.65 74.4183V72.801H122.272V74.4183V76.0355H158.65V74.4183ZM122.272 74.4183H120.654V135.918H122.272H123.889V74.4183H122.272ZM122.272 135.918H123.889V135.915H122.272H120.654V135.918H122.272ZM85.5418 74.4157L84.0902 73.7039L61.347 120.102L62.799 120.814L64.2511 121.525L86.9949 75.1275L85.5418 74.4157ZM62.799 120.814L64.2482 120.097L41.2856 73.6983L39.8362 74.4157L38.3867 75.1329L61.3496 121.531L62.799 120.814ZM39.8362 74.4157V72.7984H36.8188V74.4157V76.0328H39.8362V74.4157ZM36.8188 74.4157L35.2181 74.186L26.3991 135.674L28 135.905L29.6009 136.133L38.4198 74.6452L36.8188 74.4157ZM28 135.905V137.521H36.4977V135.905V134.286H28V135.905ZM36.4977 135.905L38.1001 136.121L43.4011 97.125L41.7987 96.9071L40.1961 96.6893L34.8951 135.686L36.4977 135.905ZM41.7987 96.9071L40.3498 97.6257L59.6904 136.623L61.1393 135.905L62.5881 135.186L43.2475 96.1885L41.7987 96.9071ZM61.1393 135.905V137.521H64.378V135.905V134.286H61.1393V135.905ZM64.378 135.905L65.8296 136.62L84.9119 97.9526L83.4617 97.2368L82.0116 96.5212L62.9284 135.188L64.378 135.905ZM83.4617 97.2368L81.8596 97.4582L87.2044 136.136L88.8066 135.915L90.4087 135.694L85.0639 97.0155L83.4617 97.2368ZM88.8066 135.915V137.532H97.3836V135.915V134.298H88.8066V135.915ZM97.3836 135.915L98.9842 135.685L90.1549 74.1858L88.5543 74.4157L86.9536 74.6455L95.783 136.145L97.3836 135.915ZM88.5543 74.4157V72.7984H85.5374V74.4157V76.0328H88.5543V74.4157ZM85.5374 74.4157V76.0328H85.5418V74.4157V72.7984H85.5374V74.4157Z" fill="#707070"/>
</g>
</g>
</svg>
