<svg width="354" height="185" viewBox="0 0 354 185" fill="none" xmlns="http://www.w3.org/2000/svg">
<g style="mix-blend-mode:luminosity">
<mask id="mask0_2707_48566" style="mask-type:luminance" maskUnits="userSpaceOnUse" x="23" y="65" width="309" height="55">
<g style="mix-blend-mode:luminosity">
<path d="M63.7319 90.3663C63.6032 88.4247 63.0851 86.4815 62.0504 84.7978L53.2573 69.3892C52.6105 68.2242 52.094 66.9288 51.8349 65.6333L51.4472 66.2811C49.2493 70.0369 49.2493 74.8272 51.4472 78.5815L58.5589 90.8819C60.7568 94.6379 60.7568 99.4281 58.5589 103.183L58.1711 103.83C57.9121 102.534 57.3956 101.241 56.7488 100.074L50.2838 88.8082L46.1455 81.5575C45.4986 80.3925 44.9822 79.097 44.7232 77.8032L44.3354 78.451C42.1375 82.2068 42.1375 86.8682 44.3354 90.7514L51.4472 103.052C53.6451 106.808 53.6451 111.599 51.4472 115.353L51.0594 116C50.8004 114.705 50.2838 113.411 49.637 112.244L40.7151 96.8355C39.5518 94.7635 39.0336 92.4335 39.0336 90.1021C29.5954 92.5624 23 97.8716 23 103.957C23 112.504 35.6709 119.366 51.3168 119.366C66.9628 119.366 79.6337 112.504 79.6337 103.957C79.7623 98.131 73.2973 92.8218 63.7286 90.3615L63.7319 90.3663ZM90.4973 116.652C90.6261 114.45 90.8848 113.025 91.5324 111.212C94.5051 112.638 98.3854 113.285 101.229 113.285C106.143 113.285 108.989 111.731 108.989 108.495C108.989 105.258 106.918 103.962 102.006 101.761L99.2892 100.725C94.2463 98.5242 90.8836 95.6755 90.8836 90.107C90.8836 84.0211 95.1514 80.1364 103.684 80.1364C107.176 80.1364 110.409 80.6535 113.383 81.6896C113.254 83.7617 112.866 85.4455 112.348 86.9987C109.504 85.9627 106.012 85.4455 103.554 85.4455C98.9004 85.4455 96.8302 87.2582 96.8302 90.107C96.8302 92.9556 98.9004 94.509 102.648 96.0639L105.493 97.2287C112.218 100.077 115.063 103.185 115.063 108.365C115.063 114.45 110.407 118.723 101.357 118.723C97.0903 118.723 93.4713 118.075 90.4973 116.652ZM143.641 91.1429V117.818H138.211L137.952 114.58C136.401 116.912 134.202 118.466 130.453 118.466C123.47 118.466 118.686 113.286 118.686 104.352C118.686 95.4177 123.728 89.5913 133.557 89.5913C137.436 89.7202 140.668 90.1085 143.641 91.1446V91.1429ZM137.823 111.73V95.0261C136.659 94.7667 135.238 94.7666 133.557 94.7666C127.479 94.7666 124.635 98.5226 124.635 104.478C124.635 109.916 126.832 113.8 132.005 113.8C134.462 113.671 136.272 112.895 137.823 111.73ZM173.64 99.9469V117.815H167.822V100.983C167.822 96.7099 166.399 94.7682 160.581 94.7682C159.158 94.7682 157.607 94.8973 155.926 95.1567V117.815H150.108V91.1413C153.858 90.2342 157.995 89.5881 160.711 89.5881C170.539 89.7169 173.641 93.4729 173.641 99.9469H173.64ZM189.931 113.543C191.612 113.543 193.292 113.284 194.457 112.766C194.328 114.319 194.068 116.133 193.81 117.687C192.258 118.334 190.448 118.594 188.896 118.594C183.206 118.594 179.586 116.005 179.586 109.531V81.4319C181.396 80.7841 183.594 80.5247 185.404 80.5247V90.6241H194.715C194.586 92.4368 194.455 94.1206 194.197 95.6738H185.404V108.752C185.404 112.119 187.085 113.543 189.931 113.543ZM221.352 91.1429V117.818H215.921L215.661 114.58C214.111 116.912 211.912 118.466 208.162 118.466C201.179 118.466 196.396 113.286 196.396 104.352C196.396 95.4177 201.438 89.5913 211.266 89.5913C215.145 89.7202 218.249 90.1085 221.352 91.1446V91.1429ZM215.405 111.73V95.0261C214.241 94.7667 212.819 94.7666 211.137 94.7666C205.061 94.7666 202.215 98.5226 202.215 104.478C202.215 109.916 204.413 113.8 209.586 113.8C212.044 113.671 213.982 112.895 215.405 111.73ZM251.35 99.9469V117.815H245.401V100.983C245.401 96.7099 243.978 94.7682 238.16 94.7682C236.738 94.7682 235.188 94.8973 233.505 95.1567V117.815H227.687V91.1413C231.436 90.2342 235.575 89.5881 238.29 89.5881C248.119 89.7169 251.35 93.4729 251.35 99.9469ZM280.96 80.5247V117.815H275.529L275.27 114.45C273.719 116.91 271.521 118.464 267.642 118.464C260.659 118.464 255.875 113.285 255.875 104.351C255.875 95.4161 260.918 89.5897 270.746 89.5897C272.297 89.5897 273.719 89.7186 275.142 89.978V81.1725C276.952 80.6552 279.021 80.5247 280.96 80.5247ZM275.142 111.73V95.2855C273.59 95.0261 272.038 94.7682 270.486 94.7682C264.668 94.7682 261.953 98.3937 261.953 104.479C261.953 109.917 264.151 113.803 269.324 113.803C271.651 113.674 273.59 112.895 275.142 111.73ZM310.442 106.423H291.692C292.468 111.212 295.183 113.415 300.485 113.415C303.718 113.415 306.95 112.768 309.794 111.344C309.535 112.896 309.278 114.969 308.889 116.653C306.173 117.818 303.459 118.337 300.226 118.337C290.398 118.337 285.744 112.899 285.744 103.833C285.744 95.9349 289.364 89.5897 298.673 89.5897C307.079 89.5897 310.699 95.0278 310.699 101.761C310.699 103.574 310.701 104.869 310.442 106.423ZM291.692 101.502H304.881C304.881 97.0998 302.552 94.5088 298.545 94.5088C294.278 94.6379 292.079 96.9693 291.692 101.502ZM330.999 89.978C330.999 91.7908 330.741 93.8628 330.483 95.0278C329.061 94.8989 327.767 94.7682 326.088 94.7682C324.665 94.7682 323.243 94.8973 321.82 95.0278V117.818H316.002V91.1429C318.46 90.2357 322.726 89.5897 325.959 89.5897C327.64 89.7186 329.708 89.7186 331.002 89.978H330.999Z" fill="white"/>
</g>
</mask>
<g mask="url(#mask0_2707_48566)">
<path d="M63.7319 90.3663C63.6032 88.4247 63.0851 86.4815 62.0504 84.7978L53.2573 69.3892C52.6105 68.2242 52.094 66.9288 51.8349 65.6333L51.4472 66.2811C49.2493 70.0369 49.2493 74.8272 51.4472 78.5815L58.5589 90.8819C60.7568 94.6379 60.7568 99.4281 58.5589 103.183L58.1711 103.83C57.9121 102.534 57.3956 101.241 56.7488 100.074L50.2838 88.8082L46.1455 81.5575C45.4986 80.3925 44.9822 79.097 44.7232 77.8032L44.3354 78.451C42.1375 82.2068 42.1375 86.8682 44.3354 90.7514L51.4472 103.052C53.6451 106.808 53.6451 111.599 51.4472 115.353L51.0594 116C50.8004 114.705 50.2838 113.411 49.637 112.244L40.7151 96.8355C39.5518 94.7635 39.0336 92.4335 39.0336 90.1021C29.5954 92.5624 23 97.8716 23 103.957C23 112.504 35.6709 119.366 51.3168 119.366C66.9628 119.366 79.6337 112.504 79.6337 103.957C79.7623 98.131 73.2973 92.8218 63.7286 90.3615L63.7319 90.3663ZM90.4973 116.652C90.6261 114.45 90.8848 113.025 91.5324 111.212C94.5051 112.638 98.3854 113.285 101.229 113.285C106.143 113.285 108.989 111.731 108.989 108.495C108.989 105.258 106.918 103.962 102.006 101.761L99.2892 100.725C94.2463 98.5242 90.8836 95.6755 90.8836 90.107C90.8836 84.0211 95.1514 80.1364 103.684 80.1364C107.176 80.1364 110.409 80.6535 113.383 81.6896C113.254 83.7617 112.866 85.4455 112.348 86.9987C109.504 85.9627 106.012 85.4455 103.554 85.4455C98.9004 85.4455 96.8302 87.2582 96.8302 90.107C96.8302 92.9556 98.9004 94.509 102.648 96.0639L105.493 97.2287C112.218 100.077 115.063 103.185 115.063 108.365C115.063 114.45 110.407 118.723 101.357 118.723C97.0903 118.723 93.4713 118.075 90.4973 116.652ZM143.641 91.1429V117.818H138.211L137.952 114.58C136.401 116.912 134.202 118.466 130.453 118.466C123.47 118.466 118.686 113.286 118.686 104.352C118.686 95.4177 123.728 89.5913 133.557 89.5913C137.436 89.7202 140.668 90.1085 143.641 91.1446V91.1429ZM137.823 111.73V95.0261C136.659 94.7667 135.238 94.7666 133.557 94.7666C127.479 94.7666 124.635 98.5226 124.635 104.478C124.635 109.916 126.832 113.8 132.005 113.8C134.462 113.671 136.272 112.895 137.823 111.73ZM173.64 99.9469V117.815H167.822V100.983C167.822 96.7099 166.399 94.7682 160.581 94.7682C159.158 94.7682 157.607 94.8973 155.926 95.1567V117.815H150.108V91.1413C153.858 90.2342 157.995 89.5881 160.711 89.5881C170.539 89.7169 173.641 93.4729 173.641 99.9469H173.64ZM189.931 113.543C191.612 113.543 193.292 113.284 194.457 112.766C194.328 114.319 194.068 116.133 193.81 117.687C192.258 118.334 190.448 118.594 188.896 118.594C183.206 118.594 179.586 116.005 179.586 109.531V81.4319C181.396 80.7841 183.594 80.5247 185.404 80.5247V90.6241H194.715C194.586 92.4368 194.455 94.1206 194.197 95.6738H185.404V108.752C185.404 112.119 187.085 113.543 189.931 113.543ZM221.352 91.1429V117.818H215.921L215.661 114.58C214.111 116.912 211.912 118.466 208.162 118.466C201.179 118.466 196.396 113.286 196.396 104.352C196.396 95.4177 201.438 89.5913 211.266 89.5913C215.145 89.7202 218.249 90.1085 221.352 91.1446V91.1429ZM215.405 111.73V95.0261C214.241 94.7667 212.819 94.7666 211.137 94.7666C205.061 94.7666 202.215 98.5226 202.215 104.478C202.215 109.916 204.413 113.8 209.586 113.8C212.044 113.671 213.982 112.895 215.405 111.73ZM251.35 99.9469V117.815H245.401V100.983C245.401 96.7099 243.978 94.7682 238.16 94.7682C236.738 94.7682 235.188 94.8973 233.505 95.1567V117.815H227.687V91.1413C231.436 90.2342 235.575 89.5881 238.29 89.5881C248.119 89.7169 251.35 93.4729 251.35 99.9469ZM280.96 80.5247V117.815H275.529L275.27 114.45C273.719 116.91 271.521 118.464 267.642 118.464C260.659 118.464 255.875 113.285 255.875 104.351C255.875 95.4161 260.918 89.5897 270.746 89.5897C272.297 89.5897 273.719 89.7186 275.142 89.978V81.1725C276.952 80.6552 279.021 80.5247 280.96 80.5247ZM275.142 111.73V95.2855C273.59 95.0261 272.038 94.7682 270.486 94.7682C264.668 94.7682 261.953 98.3937 261.953 104.479C261.953 109.917 264.151 113.803 269.324 113.803C271.651 113.674 273.59 112.895 275.142 111.73ZM310.442 106.423H291.692C292.468 111.212 295.183 113.415 300.485 113.415C303.718 113.415 306.95 112.768 309.794 111.344C309.535 112.896 309.278 114.969 308.889 116.653C306.173 117.818 303.459 118.337 300.226 118.337C290.398 118.337 285.744 112.899 285.744 103.833C285.744 95.9349 289.364 89.5897 298.673 89.5897C307.079 89.5897 310.699 95.0278 310.699 101.761C310.699 103.574 310.701 104.869 310.442 106.423ZM291.692 101.502H304.881C304.881 97.0998 302.552 94.5088 298.545 94.5088C294.278 94.6379 292.079 96.9693 291.692 101.502ZM330.999 89.978C330.999 91.7908 330.741 93.8628 330.483 95.0278C329.061 94.8989 327.767 94.7682 326.088 94.7682C324.665 94.7682 323.243 94.8973 321.82 95.0278V117.818H316.002V91.1429C318.46 90.2357 322.726 89.5897 325.959 89.5897C327.64 89.7186 329.708 89.7186 331.002 89.978H330.999Z" fill="#707070" stroke="#707070" stroke-width="2.11829"/>
</g>
</g>
</svg>
