<svg width="354" height="185" viewBox="0 0 354 185" fill="none" xmlns="http://www.w3.org/2000/svg">
<g style="mix-blend-mode:luminosity">
<mask id="mask0_2707_48566" style="mask-type:luminance" maskUnits="userSpaceOnUse" x="55" y="71" width="245" height="43">
<g style="mix-blend-mode:luminosity">
<path d="M87.2682 90.8095C87.1662 89.2714 86.7558 87.732 85.9361 86.3981L78.9701 74.1913C78.4577 73.2684 78.0485 72.2421 77.8433 71.2158L77.5361 71.729C75.7949 74.7044 75.7949 78.4993 77.5361 81.4735L83.1701 91.218C84.9113 94.1935 84.9113 97.9884 83.1701 100.963L82.8629 101.476C82.6577 100.449 82.2485 99.4244 81.7361 98.5002L76.6145 89.5752L73.3361 83.8311C72.8236 82.9082 72.4145 81.8819 72.2093 80.8569L71.9021 81.3701C70.1609 84.3455 70.1609 88.0383 71.9021 91.1146L77.5361 100.859C79.2773 103.835 79.2773 107.63 77.5361 110.604L77.2289 111.117C77.0237 110.091 76.6145 109.066 76.1021 108.141L69.0341 95.9345C68.1125 94.293 67.702 92.4472 67.702 90.6002C60.2249 92.5493 55 96.7553 55 101.576C55 108.347 65.038 113.783 77.4328 113.783C89.8277 113.783 99.8657 108.347 99.8657 101.576C99.9676 96.9608 94.846 92.7548 87.2656 90.8057L87.2682 90.8095ZM108.472 111.633C108.574 109.889 108.779 108.76 109.292 107.324C111.647 108.453 114.721 108.966 116.974 108.966C120.867 108.966 123.121 107.735 123.121 105.171C123.121 102.607 121.481 101.58 117.589 99.8367L115.437 99.0159C111.442 97.2723 108.778 95.0155 108.778 90.6041C108.778 85.7828 112.159 82.7053 118.919 82.7053C121.685 82.7053 124.246 83.115 126.602 83.9358C126.5 85.5773 126.193 86.9112 125.782 88.1417C123.529 87.321 120.763 86.9112 118.816 86.9112C115.129 86.9112 113.489 88.3473 113.489 90.6041C113.489 92.8608 115.129 94.0914 118.098 95.3232L120.352 96.246C125.679 98.5028 127.933 100.965 127.933 105.068C127.933 109.889 124.245 113.274 117.075 113.274C113.695 113.274 110.828 112.761 108.472 111.633ZM150.573 91.4248V112.557H146.271L146.066 109.992C144.837 111.839 143.095 113.07 140.125 113.07C134.593 113.07 130.803 108.967 130.803 101.889C130.803 94.8113 134.798 90.1956 142.584 90.1956C145.657 90.2977 148.218 90.6053 150.573 91.4261V91.4248ZM145.964 107.734V94.5011C145.042 94.2956 143.916 94.2955 142.584 94.2955C137.769 94.2955 135.516 97.271 135.516 101.989C135.516 106.297 137.257 109.374 141.355 109.374C143.301 109.272 144.735 108.657 145.964 107.734ZM174.338 98.3994V112.555H169.729V99.2202C169.729 95.835 168.602 94.2968 163.993 94.2968C162.866 94.2968 161.637 94.399 160.305 94.6045V112.555H155.696V91.4235C158.667 90.7049 161.944 90.193 164.096 90.193C171.882 90.2951 174.339 93.2706 174.339 98.3994H174.338ZM187.244 109.17C188.576 109.17 189.907 108.965 190.83 108.555C190.728 109.785 190.522 111.222 190.317 112.453C189.088 112.966 187.654 113.172 186.424 113.172C181.917 113.172 179.049 111.121 179.049 105.992V83.7316C180.483 83.2184 182.224 83.0129 183.658 83.0129V91.0138H191.034C190.932 92.4498 190.828 93.7837 190.624 95.0142H183.658V105.375C183.658 108.042 184.99 109.17 187.244 109.17ZM212.136 91.4248V112.557H207.834L207.628 109.992C206.4 111.839 204.658 113.07 201.687 113.07C196.155 113.07 192.366 108.967 192.366 101.889C192.366 94.8113 196.36 90.1956 204.146 90.1956C207.219 90.2977 209.678 90.6053 212.136 91.4261V91.4248ZM207.425 107.734V94.5011C206.503 94.2956 205.376 94.2955 204.044 94.2955C199.23 94.2955 196.976 97.271 196.976 101.989C196.976 106.297 198.717 109.374 202.815 109.374C204.762 109.272 206.298 108.657 207.425 107.734ZM235.901 98.3994V112.555H231.188V99.2202C231.188 95.835 230.061 94.2968 225.452 94.2968C224.325 94.2968 223.097 94.399 221.764 94.6045V112.555H217.155V91.4235C220.125 90.7049 223.404 90.193 225.555 90.193C233.341 90.2951 235.901 93.2706 235.901 98.3994ZM259.358 83.0129V112.555H255.056L254.851 109.889C253.622 111.838 251.881 113.069 248.808 113.069C243.276 113.069 239.486 108.966 239.486 101.888C239.486 94.81 243.481 90.1943 251.267 90.1943C252.495 90.1943 253.622 90.2964 254.749 90.5019V83.5261C256.183 83.1163 257.822 83.0129 259.358 83.0129ZM254.749 107.734V94.7066C253.52 94.5011 252.29 94.2968 251.061 94.2968C246.452 94.2968 244.301 97.1689 244.301 101.99C244.301 106.298 246.042 109.376 250.14 109.376C251.984 109.274 253.52 108.657 254.749 107.734ZM282.714 103.53H267.86C268.475 107.324 270.626 109.069 274.826 109.069C277.387 109.069 279.948 108.556 282.201 107.428C281.996 108.658 281.792 110.3 281.484 111.634C279.332 112.557 277.182 112.968 274.621 112.968C266.835 112.968 263.148 108.66 263.148 101.478C263.148 95.221 266.016 90.1943 273.391 90.1943C280.05 90.1943 282.918 94.5024 282.918 99.8367C282.918 101.273 282.919 102.299 282.714 103.53ZM267.86 99.6312H278.309C278.309 96.1439 276.464 94.0913 273.289 94.0913C269.909 94.1935 268.167 96.0405 267.86 99.6312ZM299 90.5019C299 91.938 298.795 93.5795 298.591 94.5024C297.464 94.4003 296.439 94.2968 295.109 94.2968C293.982 94.2968 292.855 94.399 291.728 94.5024V112.557H287.119V91.4248C289.066 90.7061 292.446 90.1943 295.007 90.1943C296.339 90.2964 297.977 90.2964 299.002 90.5019H299Z" fill="white"/>
</g>
</mask>
<g mask="url(#mask0_2707_48566)">
<path d="M87.2682 90.8095C87.1662 89.2714 86.7558 87.732 85.9361 86.3981L78.9701 74.1913C78.4577 73.2684 78.0485 72.2421 77.8433 71.2158L77.5361 71.729C75.7949 74.7044 75.7949 78.4993 77.5361 81.4735L83.1701 91.218C84.9113 94.1935 84.9113 97.9884 83.1701 100.963L82.8629 101.476C82.6577 100.449 82.2485 99.4244 81.7361 98.5002L76.6145 89.5752L73.3361 83.8311C72.8236 82.9082 72.4145 81.8819 72.2093 80.8569L71.9021 81.3701C70.1609 84.3455 70.1609 88.0383 71.9021 91.1146L77.5361 100.859C79.2773 103.835 79.2773 107.63 77.5361 110.604L77.2289 111.117C77.0237 110.091 76.6145 109.066 76.1021 108.141L69.0341 95.9345C68.1125 94.293 67.702 92.4472 67.702 90.6002C60.2249 92.5493 55 96.7553 55 101.576C55 108.347 65.038 113.783 77.4328 113.783C89.8277 113.783 99.8657 108.347 99.8657 101.576C99.9676 96.9608 94.846 92.7548 87.2656 90.8057L87.2682 90.8095ZM108.472 111.633C108.574 109.889 108.779 108.76 109.292 107.324C111.647 108.453 114.721 108.966 116.974 108.966C120.867 108.966 123.121 107.735 123.121 105.171C123.121 102.607 121.481 101.58 117.589 99.8367L115.437 99.0159C111.442 97.2723 108.778 95.0155 108.778 90.6041C108.778 85.7828 112.159 82.7053 118.919 82.7053C121.685 82.7053 124.246 83.115 126.602 83.9358C126.5 85.5773 126.193 86.9112 125.782 88.1417C123.529 87.321 120.763 86.9112 118.816 86.9112C115.129 86.9112 113.489 88.3473 113.489 90.6041C113.489 92.8608 115.129 94.0914 118.098 95.3232L120.352 96.246C125.679 98.5028 127.933 100.965 127.933 105.068C127.933 109.889 124.245 113.274 117.075 113.274C113.695 113.274 110.828 112.761 108.472 111.633ZM150.573 91.4248V112.557H146.271L146.066 109.992C144.837 111.839 143.095 113.07 140.125 113.07C134.593 113.07 130.803 108.967 130.803 101.889C130.803 94.8113 134.798 90.1956 142.584 90.1956C145.657 90.2977 148.218 90.6053 150.573 91.4261V91.4248ZM145.964 107.734V94.5011C145.042 94.2956 143.916 94.2955 142.584 94.2955C137.769 94.2955 135.516 97.271 135.516 101.989C135.516 106.297 137.257 109.374 141.355 109.374C143.301 109.272 144.735 108.657 145.964 107.734ZM174.338 98.3994V112.555H169.729V99.2202C169.729 95.835 168.602 94.2968 163.993 94.2968C162.866 94.2968 161.637 94.399 160.305 94.6045V112.555H155.696V91.4235C158.667 90.7049 161.944 90.193 164.096 90.193C171.882 90.2951 174.339 93.2706 174.339 98.3994H174.338ZM187.244 109.17C188.576 109.17 189.907 108.965 190.83 108.555C190.728 109.785 190.522 111.222 190.317 112.453C189.088 112.966 187.654 113.172 186.424 113.172C181.917 113.172 179.049 111.121 179.049 105.992V83.7316C180.483 83.2184 182.224 83.0129 183.658 83.0129V91.0138H191.034C190.932 92.4498 190.828 93.7837 190.624 95.0142H183.658V105.375C183.658 108.042 184.99 109.17 187.244 109.17ZM212.136 91.4248V112.557H207.834L207.628 109.992C206.4 111.839 204.658 113.07 201.687 113.07C196.155 113.07 192.366 108.967 192.366 101.889C192.366 94.8113 196.36 90.1956 204.146 90.1956C207.219 90.2977 209.678 90.6053 212.136 91.4261V91.4248ZM207.425 107.734V94.5011C206.503 94.2956 205.376 94.2955 204.044 94.2955C199.23 94.2955 196.976 97.271 196.976 101.989C196.976 106.297 198.717 109.374 202.815 109.374C204.762 109.272 206.298 108.657 207.425 107.734ZM235.901 98.3994V112.555H231.188V99.2202C231.188 95.835 230.061 94.2968 225.452 94.2968C224.325 94.2968 223.097 94.399 221.764 94.6045V112.555H217.155V91.4235C220.125 90.7049 223.404 90.193 225.555 90.193C233.341 90.2951 235.901 93.2706 235.901 98.3994ZM259.358 83.0129V112.555H255.056L254.851 109.889C253.622 111.838 251.881 113.069 248.808 113.069C243.276 113.069 239.486 108.966 239.486 101.888C239.486 94.81 243.481 90.1943 251.267 90.1943C252.495 90.1943 253.622 90.2964 254.749 90.5019V83.5261C256.183 83.1163 257.822 83.0129 259.358 83.0129ZM254.749 107.734V94.7066C253.52 94.5011 252.29 94.2968 251.061 94.2968C246.452 94.2968 244.301 97.1689 244.301 101.99C244.301 106.298 246.042 109.376 250.14 109.376C251.984 109.274 253.52 108.657 254.749 107.734ZM282.714 103.53H267.86C268.475 107.324 270.626 109.069 274.826 109.069C277.387 109.069 279.948 108.556 282.201 107.428C281.996 108.658 281.792 110.3 281.484 111.634C279.332 112.557 277.182 112.968 274.621 112.968C266.835 112.968 263.148 108.66 263.148 101.478C263.148 95.221 266.016 90.1943 273.391 90.1943C280.05 90.1943 282.918 94.5024 282.918 99.8367C282.918 101.273 282.919 102.299 282.714 103.53ZM267.86 99.6312H278.309C278.309 96.1439 276.464 94.0913 273.289 94.0913C269.909 94.1935 268.167 96.0405 267.86 99.6312ZM299 90.5019C299 91.938 298.795 93.5795 298.591 94.5024C297.464 94.4003 296.439 94.2968 295.109 94.2968C293.982 94.2968 292.855 94.399 291.728 94.5024V112.557H287.119V91.4248C289.066 90.7061 292.446 90.1943 295.007 90.1943C296.339 90.2964 297.977 90.2964 299.002 90.5019H299Z" fill="#707070" stroke="#707070" stroke-width="2.11829"/>
</g>
</g>
</svg>
